<svg id="Cat" xmlns="http://www.w3.org/2000/svg" xmlns:xlink="http://www.w3.org/1999/xlink" width="46" height="46" viewBox="0 0 46 46">
  <defs>
    <clipPath id="clip-path">
      <circle id="Mask" cx="23" cy="23" r="23" fill="#f6c44d"/>
    </clipPath>
  </defs>
  <circle id="Mask-2" data-name="Mask" cx="23" cy="23" r="23" fill="#00000000"/>
  <g id="Cat-2" data-name="Cat" clip-path="url(#clip-path)">
    <g id="Cat-3" data-name="Cat" transform="translate(2 17)">
      <path id="Fill_1" data-name="Fill 1" d="M.032,33.993s.127-10.917,0-13.13A9.879,9.879,0,0,1,.45,16.91,12.424,12.424,0,0,0,.931,14.42a14.609,14.609,0,0,1,.95-3.7,27.117,27.117,0,0,0,.811-2.8c.241-.588.938-2.427,1.2-3.177a23.129,23.129,0,0,0,.938-2.164c.114-.6.735-2.051,1.407-2.139S7.6.937,8.079,1.925,9.334,4.076,9.638,4.7s.532,1.564,1.255,1.539,5.753-.1,6.9-.2a109.764,109.764,0,0,1,11.495.286c1.644.13,1.854.208,1.933-.312s.723-1.363,1-2.207a5.816,5.816,0,0,1,.8-1.817C33.493,1.261,33.69.064,34.427,0s1.354,1.166,1.782,2.174A14.229,14.229,0,0,1,37.612,6c.133,1.359,1.046,2.37,1.094,3.566s1.45,6.17,1.521,7.367,1.877,12.338,1.768,13.28" transform="translate(0.07 0.007)" fill="#181818"/>
      <path id="Fill_3" data-name="Fill 3" d="M.011,4.506A4.251,4.251,0,0,1,.8,2.1C1.66.825,2.293.86,2.79.463A6.076,6.076,0,0,1,7.146.356,4.538,4.538,0,0,1,9.548,2.7a5.278,5.278,0,0,1,.52,2.877,5.114,5.114,0,0,1-1.13,2.632c-.881.781-.9,1.115-3.3,1.517A4.677,4.677,0,0,1,1.389,8.364,4.514,4.514,0,0,1,.011,4.506" transform="translate(25.096 12.371)" fill="#fff"/>
      <path id="Fill_5" data-name="Fill 5" d="M3.211,9.611A4.359,4.359,0,0,1,1.093,8.183,4.66,4.66,0,0,1,.066,5.839a5.815,5.815,0,0,1,1.182-4.1A4.525,4.525,0,0,1,4.145.071a5.23,5.23,0,0,1,2.9.341A5.222,5.222,0,0,1,9.158,2.256c.51,1.055.651,1.152.544,3.552A4.035,4.035,0,0,1,7.351,9.394a4.658,4.658,0,0,1-4.14.217" transform="translate(7.017 12.353)" fill="#fff"/>
      <path id="Fill_8" data-name="Fill 8" d="M2.478.02S.107-.417.009,2.75s.6,3.823,1.9,4.151A2.105,2.105,0,0,0,4.518,5.243C4.882,4.033,5.03.256,2.478.02" transform="translate(10.023 14)" fill="#181818"/>
      <path id="Fill_10" data-name="Fill 10" d="M2.478.02S.107-.417.009,2.75s.6,3.823,1.9,4.151A2.105,2.105,0,0,0,4.518,5.243C4.882,4.033,5.03.256,2.478.02" transform="translate(28.258 14)" fill="#181818"/>
    </g>
  </g>
</svg>
