<?xml version="1.0" encoding="UTF-8"?>
<svg width="42px" height="37px" viewBox="0 0 42 37" version="1.1" xmlns="http://www.w3.org/2000/svg" xmlns:xlink="http://www.w3.org/1999/xlink">
    <!-- Generator: Sketch 60.1 (88133) - https://sketch.com -->
    <title>caress</title>
    <desc>Created with Sketch.</desc>
    <g id="UI" stroke="none" stroke-width="1" fill="none" fill-rule="evenodd">
        <g id="04_TCHAT_1-SLIDER" transform="translate(-42.000000, -584.000000)">
            <g id="ENVIE-DE-CARESSE-?-" transform="translate(42.000000, 583.000000)">
                <g id="caress">
                    <path d="M41.1256033,16.9141457 L30.1523225,7.52771241 C28.3157386,5.95669618 25.9826555,5.09395473 23.5710218,5.09395473 L13.3179427,5.09395473 C11.9691507,5.09395473 10.6707497,4.57887965 9.6855323,3.65282457 L7.60891907,1.70101883 C6.80405841,0.944531485 5.53833578,0.983745797 4.78184843,1.78860645 C4.68362049,1.89311553 4.59691939,2.00788763 4.52324129,2.13094214 L0.815164296,8.32403901 C0.337732297,9.12142877 0.472509541,10.1426305 1.14046809,10.7888527 L4.02562665,13.5801239 L4.02562665,13.5801239 C5.00769466,14.5302941 5.85072437,15.6155643 6.5295203,16.8038124 L7.51371881,18.5264089 C8.74125751,20.675069 11.0181139,22 13.4831954,22 L26.3363185,22 C27.5493142,22 28.5327717,21.0114692 28.5327717,19.7922161 C28.5327717,18.572963 27.5493142,17.5843392 26.3363185,17.5843392 L23.5710218,17.5843392 L21.0355411,17.5843392 C19.8225454,17.5843392 18.8390879,16.5959015 18.8390879,15.3765553 C18.8390879,14.1573022 19.8224528,13.1687715 21.0355411,13.1687715 L26.6593209,13.1687715 C28.3719653,13.1687715 30.0304208,13.771927 31.3465142,14.873305 L38.1675425,20.5818676 C39.15276,21.4063415 40.6109485,21.2830661 41.4459193,20.3125984 C42.307012,19.3117774 42.1372204,17.7607794 41.1256033,16.9141457 Z" id="Path" fill="#000000" fill-rule="nonzero"></path>
                    <polygon id="Path-2" fill="#FFFFFF" points="9 38 42 38 42 29 24.9261267 30.9153932 9 36.2582001"></polygon>
                    <path d="M22.8562154,30.2869116 C17.1245815,31.7407481 11.9874141,33.8773974 8,36.4658253 L9.14278069,38 C12.9443908,35.5322035 17.8678638,33.4886002 23.3811548,32.0901201 C29.1925422,30.6160131 35.4567521,29.8685454 42,29.8685454 L42,28 C35.2794481,28 28.8386647,28.769412 22.8562154,30.2869116 Z" id="Path" fill="#000000" fill-rule="nonzero"></path>
                </g>
            </g>
        </g>
    </g>
</svg>