<?xml version="1.0" encoding="UTF-8"?>
<svg width="45px" height="33px" viewBox="0 0 45 33" version="1.1" xmlns="http://www.w3.org/2000/svg" xmlns:xlink="http://www.w3.org/1999/xlink">
    <!-- Generator: Sketch 61.2 (89653) - https://sketch.com -->
    <title>Cat</title>
    <desc>Created with Sketch.</desc>
    <defs>
        <ellipse id="path-1" cx="24.5" cy="23" rx="24.5" ry="23"></ellipse>
    </defs>
    <g id="UI" stroke="none" stroke-width="1" fill="none" fill-rule="evenodd">
        <g id="03_chat-" transform="translate(-1189.000000, -381.000000)">
            <rect id="Rectangle" fill="#181818" x="640" y="0" width="640" height="801"></rect>
            <g id="Messages" transform="translate(682.000000, 41.000000)">
                <g id="Message-4" transform="translate(232.000000, 328.000000)">
                    <g id="Cat-Copy-3" transform="translate(275.000000, 0.000000)">
                        <mask id="mask-2" fill="white">
                            <use xlink:href="#path-1"></use>
                        </mask>
                        <use id="Mask" fill="#F6C44D" xlink:href="#path-1"></use>
                        <g id="Cat" mask="url(#mask-2)">
                            <g transform="translate(0.000000, 12.000000)">
                                <path d="M0.107997707,34 C0.107997707,34 0.242983042,23.0834589 0.107997707,20.869553 C-0.0269876274,18.6556471 0.269980109,17.9551702 0.553449313,16.9170055 C0.837012911,15.8788408 1.06648798,14.9781651 1.06648798,14.4278591 C1.06648798,13.8774656 1.66051785,11.463361 2.07897239,10.7253632 C2.49752132,9.98736545 2.68650079,8.51145734 2.94297293,7.92354301 C3.19944506,7.33562868 3.9419588,5.49693142 4.225428,4.74642668 C4.5089916,3.99592194 5.10292707,3.18288243 5.22441388,2.58254861 C5.34599507,1.98212732 6.00742321,0.531233125 6.72293988,0.443684442 C7.43845655,0.356048298 8.16737736,0.943962628 8.68041603,1.93209951 C9.1934547,2.92023638 10.0169596,4.08355809 10.3409244,4.70890582 C10.6648892,5.33434101 10.9079572,6.27245007 11.677468,6.24743616 C12.4468845,6.22242225 17.8057079,6.14930467 19.0245405,6.0454882 C20.2433731,5.94167173 27.3182094,5.98059198 31.2688431,6.33104909 C33.0200654,6.46084154 33.2442543,6.53876949 33.3283606,6.01951222 C33.4123724,5.50034241 34.0989097,4.65660401 34.3930456,3.81286561 C34.6871815,2.96912721 34.7432523,2.72248656 35.247701,1.99559635 C35.7520553,1.26870614 35.962085,0.0710121783 36.746699,0.00961440094 C37.5312187,-0.0518708376 38.1895318,1.17512264 38.6453669,2.18398782 C39.1011076,3.19285301 40.0003176,4.67706994 40.1392675,6.00822972 C40.2812381,7.36772695 41.2534157,8.37781659 41.304106,9.57437356 C41.3547019,10.7708431 42.8486969,15.7445878 42.9246852,16.9411448 C43.0006734,18.1377017 44.9238226,29.2796317 44.8080939,30.2210643" id="Fill-1" fill="#181818"></path>
                                <path d="M26.7438987,16.8767471 C26.7438987,16.8767471 26.6715918,15.739139 27.5864715,14.4677152 C28.5012567,13.1963789 29.1753338,13.2311884 29.7048917,12.8345518 C30.2345439,12.4379152 33.0210943,12.0801113 34.3451777,12.7269745 C35.6692612,13.3737502 36.2288367,13.8209395 36.9030083,15.0699732 C37.5770854,16.3190943 37.5289437,17.7465489 37.4566369,17.9473599 C37.3845189,18.1480834 37.1919524,19.7986516 36.2530019,20.5794179 C35.3141459,21.3600967 35.2900751,21.6946359 32.7382859,22.0961704 C30.1864023,22.4977048 28.9346257,21.2931889 28.212407,20.7355362 C27.4901882,20.1778834 26.6235446,18.9511523 26.7438987,16.8767471" id="Fill-3" fill="#FFFFFF"></path>
                                <path d="M10.8958086,21.9641826 C10.8958086,21.9641826 9.69755413,21.707484 8.63900479,20.535766 C7.58054986,19.3639605 7.80672109,18.7745594 7.54543479,18.1918927 C7.28414849,17.6092261 7.76103375,15.0895557 8.80419664,14.0949467 C9.84745393,13.1004252 10.4068407,12.6707282 11.8903579,12.4239126 C13.3737806,12.1770096 14.7961296,12.6443149 14.9836931,12.7651863 C15.1711623,12.8859703 16.6866794,13.5538241 17.2302078,14.608519 C17.7738305,15.6633888 17.9238247,15.7605582 17.809512,18.1607565 C17.695388,20.5565817 16.086797,21.2624813 15.3056756,21.7471914 C14.5245542,22.2319014 13.0097922,22.6561758 10.8958086,21.9641826" id="Fill-5" fill="#FFFFFF"></path>
                                <path d="M13.3162571,14.0207268 C13.3162571,14.0207268 10.7908603,13.5834197 10.6862945,16.7501674 C10.5818234,19.916915 11.3243921,20.5728756 12.7108362,20.9008988 C14.0973751,21.2288362 15.1022108,20.4541633 15.4896915,19.243469 C15.8771722,18.0327747 16.034684,14.2566943 13.3162571,14.0207268" id="Fill-8" fill="#181818"></path>
                                <path d="M32.7405019,14.0207268 C32.7405019,14.0207268 30.215105,13.5834197 30.1105392,16.7501674 C30.0060681,19.916915 30.7486369,20.5728756 32.135081,20.9008988 C33.5216198,21.2288362 34.5263608,20.4541633 34.9138415,19.243469 C35.3013223,18.0327747 35.4589287,14.2566943 32.7405019,14.0207268" id="Fill-10" fill="#181818"></path>
                            </g>
                        </g>
                    </g>
                </g>
            </g>
        </g>
    </g>
</svg>