<?xml version="1.0" encoding="UTF-8"?>
<svg width="88px" height="29px" viewBox="0 0 88 29" version="1.1" xmlns="http://www.w3.org/2000/svg" xmlns:xlink="http://www.w3.org/1999/xlink">
    <!-- Generator: Sketch 60.1 (88133) - https://sketch.com -->
    <title>Group 14</title>
    <desc>Created with Sketch.</desc>
    <defs>
        <polygon id="path-1" points="6.15338846e-05 0.2338125 87.7697153 0.2338125 87.7697153 29 6.15338846e-05 29"></polygon>
    </defs>
    <g id="UI" stroke="none" stroke-width="1" fill="none" fill-rule="evenodd">
        <g id="04_TCHAT_1-SLIDER" transform="translate(-63.000000, -672.000000)">
            <g id="SLIDER" transform="translate(42.000000, 672.000000)">
                <g id="Chat-Lucas" transform="translate(21.000000, 0.000000)">
                    <g id="Group-14">
                        <g id="Group-3">
                            <mask id="mask-2" fill="white">
                                <use xlink:href="#path-1"></use>
                            </mask>
                            <g id="Clip-2"></g>
                            <path d="M86.1873119,29.0001087 C84.0145322,29.0001087 55.1945322,28.8286462 53.7030068,28.8286462 L34.3131763,28.8286462 C34.3131763,28.8286462 10.0758881,28.8286462 7.09283729,28.4661462 C4.10978644,28.1036462 2.24537966,27.0161462 0.753854237,24.1161462 C-0.737671186,21.2161462 0.380972881,12.8786462 0.753854237,10.7036462 C1.12673559,8.52864625 1.49961695,2.72864625 2.99114237,1.27864625 C5.22843051,-0.89635375 6.34707458,5.99114625 7.46571864,5.62864625 C12.2770068,4.06953375 17.9063966,5.26614625 19.397922,5.26614625 C20.8894475,5.26614625 22.3809729,0.55364625 24.2453797,0.55364625 C26.1097864,0.55364625 25.3640237,5.99114625 27.2284305,4.90364625 C36.9531763,-0.76875375 48.8555492,-1.98385375 57.4318203,5.26614625 C66.0080915,12.5161462 64.482261,21.3973962 64.4960576,22.2623212 C64.5094814,23.1268837 65.2630746,25.3533587 75.0087017,25.2946337 C77.9608034,25.2768712 84.3292441,23.2465087 86.1746339,23.7996837 C88.6986678,24.5569462 87.8600576,29.0001087 86.1873119,29.0001087" id="Fill-1" fill="#181818" mask="url(#mask-2)"></path>
                        </g>
                        <g id="Group-8" transform="translate(3.697479, 15.225000)" fill="#FFFFFF">
                            <path d="M0.192823529,1.1819675 C-0.00129411765,1.50052135 0.192823529,4.69542904 3.52055462,4.69542904 C6.84828571,4.69542904 7.64583193,1.10896558 7.21803361,0.791582885 C6.39608403,0.181802115 0.86687395,0.0756175 0.192823529,1.1819675" id="Fill-4"></path>
                            <path d="M12.815721,1.1819675 C12.6216034,1.50052135 12.815721,4.69542904 16.1434521,4.69542904 C19.4711832,4.69542904 20.2690992,1.10896558 19.8409311,0.791582885 C19.0189815,0.181802115 13.4897714,0.0756175 12.815721,1.1819675" id="Fill-6"></path>
                        </g>
                        <g id="Group-13" transform="translate(5.176471, 15.225000)" fill="#181818">
                            <path d="M13.0265521,0.239368636 C13.0265521,0.239368636 12.5059471,4.28486864 14.4525408,4.23741409 C16.3995128,4.190355 16.1501824,0.239368636 16.1501824,0.239368636 L13.0265521,0.239368636 Z" id="Fill-9"></path>
                            <path d="M0.392042838,0.239368636 C0.392042838,0.239368636 -0.128562204,4.28486864 1.8180315,4.23741409 C3.76462521,4.190355 3.51567309,0.239368636 3.51567309,0.239368636 L0.392042838,0.239368636 Z" id="Fill-11"></path>
                        </g>
                    </g>
                </g>
            </g>
        </g>
    </g>
</svg>