<?xml version="1.0" encoding="UTF-8"?>
<svg width="600px" height="318px" viewBox="0 0 600 318" version="1.1" xmlns="http://www.w3.org/2000/svg" xmlns:xlink="http://www.w3.org/1999/xlink">
    <!-- Generator: Sketch 60.1 (88133) - https://sketch.com -->
    <title>Group</title>
    <desc>Created with Sketch.</desc>
    <defs>
        <polygon id="path-1" points="0 0.0430309278 9.99311 0.0430309278 9.99311 9.94960309 0 9.94960309"></polygon>
        <polygon id="path-3" points="0.0872376238 0.0788283833 9.95207921 0.0788283833 9.95207921 8.94065136 0.0872376238 8.94065136"></polygon>
        <polygon id="path-5" points="0 0.0430309278 9.99311 0.0430309278 9.99311 9.94960309 0 9.94960309"></polygon>
        <polygon id="path-7" points="0.0872376238 0.0788283833 9.95207921 0.0788283833 9.95207921 8.94065136 0.0872376238 8.94065136"></polygon>
        <polygon id="path-9" points="0 0.0430309278 9.99311 0.0430309278 9.99311 9.94960309 0 9.94960309"></polygon>
        <polygon id="path-11" points="0.0872376238 0.0788283833 9.95207921 0.0788283833 9.95207921 8.94065136 0.0872376238 8.94065136"></polygon>
        <polygon id="path-13" points="0 0.0430309278 9.99311 0.0430309278 9.99311 9.94960309 0 9.94960309"></polygon>
        <polygon id="path-15" points="0.0872376238 0.0788283833 9.95207921 0.0788283833 9.95207921 8.94065136 0.0872376238 8.94065136"></polygon>
        <polygon id="path-17" points="0 0.0430309278 9.99311 0.0430309278 9.99311 9.94960309 0 9.94960309"></polygon>
        <polygon id="path-19" points="0.0872376238 0.0788283833 9.95207921 0.0788283833 9.95207921 8.94065136 0.0872376238 8.94065136"></polygon>
        <polygon id="path-21" points="0 0.0430309278 9.99311 0.0430309278 9.99311 9.94960309 0 9.94960309"></polygon>
        <polygon id="path-23" points="0.0872376238 0.0788283833 9.95207921 0.0788283833 9.95207921 8.94065136 0.0872376238 8.94065136"></polygon>
        <polygon id="path-25" points="0 0.0430309278 9.99311 0.0430309278 9.99311 9.94960309 0 9.94960309"></polygon>
        <polygon id="path-27" points="0.0872376238 0.0788283833 9.95207921 0.0788283833 9.95207921 8.94065136 0.0872376238 8.94065136"></polygon>
        <polygon id="path-29" points="0 0.0430309278 9.99311 0.0430309278 9.99311 9.94960309 0 9.94960309"></polygon>
        <polygon id="path-31" points="0.0872376238 0.0788283833 9.95207921 0.0788283833 9.95207921 8.94065136 0.0872376238 8.94065136"></polygon>
        <polygon id="path-33" points="0 0.0430309278 9.99311 0.0430309278 9.99311 9.94960309 0 9.94960309"></polygon>
        <polygon id="path-35" points="0.0872376238 0.0788283833 9.95207921 0.0788283833 9.95207921 8.94065136 0.0872376238 8.94065136"></polygon>
        <polygon id="path-37" points="0 0.0430309278 9.99311 0.0430309278 9.99311 9.94960309 0 9.94960309"></polygon>
        <polygon id="path-39" points="0.0872376238 0.0788283833 9.95207921 0.0788283833 9.95207921 8.94065136 0.0872376238 8.94065136"></polygon>
        <polygon id="path-41" points="0 0.856396597 292.892979 0.856396597 292.892979 211.999929 0 211.999929"></polygon>
        <polygon id="path-43" points="0 0.247518699 61.7484293 0.247518699 61.7484293 32 0 32"></polygon>
        <polygon id="path-45" points="0.000124705882 0.313286275 52.4257294 0.313286275 52.4257294 64 0.000124705882 64"></polygon>
        <polygon id="path-47" points="0.000127058824 0.313286275 53.4148941 0.313286275 53.4148941 64 0.000127058824 64"></polygon>
        <polygon id="path-49" points="0.000127058824 0.313286275 53.4148941 0.313286275 53.4148941 64 0.000127058824 64"></polygon>
        <polygon id="path-51" points="0.000377467534 1.17907895 99.2342105 1.17907895 99.2342105 24.8014474 0.000377467534 24.8014474"></polygon>
    </defs>
    <g id="UI" stroke="none" stroke-width="1" fill="none" fill-rule="evenodd">
        <g id="04_tchat_1message" transform="translate(-20.000000, -131.000000)">
            <g id="Group" transform="translate(16.000000, 127.000000)">
                <g id="Fond-motif">
                    <g id="Picto-patte-de-chat-Copy-5" transform="translate(117.500000, 103.000000) rotate(-75.000000) translate(-117.500000, -103.000000) translate(103.000000, 88.000000)">
                        <path d="M21.3161411,8.82025573 C22.0752917,8.12703904 19.2284769,10.7018439 19.0386893,11.8902153 C18.8489016,13.0785868 19.3233707,15.4553297 21.2212473,15.8514536 C23.1191238,16.2475774 24.3527435,15.8514536 25.6812571,14.6630821 C27.0097707,13.4747106 28.2433904,11.1969987 27.9587089,10.0086272 C27.6740274,8.82025573 27.2895177,7.36697646 25.3965756,7.03769853 C23.1191238,6.64157471 20.5569905,9.51347242 21.3161411,8.82025573" id="Fill-1" fill="#E9B843" transform="translate(23.500000, 11.500000) rotate(6.000000) translate(-23.500000, -11.500000) "></path>
                        <path d="M12.6826746,3.75105542 C12.6826746,3.75105542 11.1466567,6.66391495 12.6826746,8.57234016 C14.2186925,10.4807654 15.8571115,10.1794351 17.3931294,9.37588762 C18.9291472,8.57234016 19.6459556,6.56347152 20.2603627,4.85593317 C20.8747698,3.14839482 21.6939794,1.23996961 19.9531591,0.436422153 C18.2123389,-0.367125305 16.3578533,0.0200841265 15.1403032,0.938639314 C13.8090877,1.94307364 13.5018841,2.64617766 12.6826746,3.75105542" id="Fill-3" fill="#E9B843"></path>
                        <g id="Group-7" transform="translate(0.000000, 2.000000)">
                            <mask id="mask-2" fill="white">
                                <use xlink:href="#path-1"></use>
                            </mask>
                            <g id="Clip-6"></g>
                            <path d="M0.91311,9.16674227 C2.41311,10.0945773 4.11311,10.1976701 5.81311,9.47602062 C7.51311,8.75437113 7.3,8.41536486 8.49999866,6.45660197 C9.7,4.49783908 10.31311,2.67189691 9.51311,1.43478351 C8.71311,0.197670103 7.71311,-0.214701031 6.11311,0.197670103 C4.51311,0.610041237 0.91311,2.46571134 0.21311,5.04303093 C0.21311,5.04303093 -0.58689,8.23890722 0.91311,9.16674227 Z" id="Fill-5" fill="#E9B843" mask="url(#mask-2)"></path>
                        </g>
                        <g id="Group-10" transform="translate(19.000000, 17.000000)">
                            <mask id="mask-4" fill="white">
                                <use xlink:href="#path-3"></use>
                            </mask>
                            <g id="Clip-9"></g>
                            <path d="M1.10208911,7.38164842 C2.68624752,8.80270105 3.28030693,9.18164842 5.06248515,8.80270105 C6.84466337,8.42375368 9.04968701,5.55184513 9.44572661,4.50973987 C9.84176622,3.46763461 9.94077612,2.3307925 9.44572661,1.76237145 C8.95067711,1.1939504 8.11672002,0.430904674 6.35018285,1.05391126 C4.58364568,1.67691785 2.38921782,1.2484993 1.10208911,2.29060457 C0.405257426,2.85476246 0.435825624,2.95376246 0.237805822,3.90113088 C0.0397860198,4.8484993 -0.482069307,5.96059579 1.10208911,7.38164842 Z" id="Fill-8" fill="#E9B843" mask="url(#mask-4)"></path>
                        </g>
                        <path d="M14.4014999,13.3640765 C15.7584129,14.18286 16.8370847,16.1857304 16.3499677,17.6973308 C15.8628508,19.2089311 15.9602742,22.030585 16.2525443,22.6352251 C16.5448145,23.2398652 17.5190484,25.7591991 16.6422379,27.4723461 C15.7654274,29.1854931 15.5705806,29.7901333 11.7710684,29.99168 C7.97155624,30.1932267 4.17204407,26.6661593 4.17204407,26.6661593 C-3.13471012,19.9143446 0.859648836,15.1779969 3.39265695,14.7749035 C5.92566507,14.3718101 7.67928608,14.06949 9.33548369,12.7594364 C10.9916813,11.4493828 12.0633386,11.9532496 14.4014999,13.3640765" id="Fill-11" fill="#E9B843"></path>
                    </g>
                    <g id="Picto-patte-de-chat-Copy-11" transform="translate(43.500000, 29.000000) rotate(-330.000000) translate(-43.500000, -29.000000) translate(29.000000, 14.000000)">
                        <path d="M21.3161411,8.82025573 C22.0752917,8.12703904 19.2284769,10.7018439 19.0386893,11.8902153 C18.8489016,13.0785868 19.3233707,15.4553297 21.2212473,15.8514536 C23.1191238,16.2475774 24.3527435,15.8514536 25.6812571,14.6630821 C27.0097707,13.4747106 28.2433904,11.1969987 27.9587089,10.0086272 C27.6740274,8.82025573 27.2895177,7.36697646 25.3965756,7.03769853 C23.1191238,6.64157471 20.5569905,9.51347242 21.3161411,8.82025573" id="Fill-1" fill="#E9B843" transform="translate(23.500000, 11.500000) rotate(6.000000) translate(-23.500000, -11.500000) "></path>
                        <path d="M12.6826746,3.75105542 C12.6826746,3.75105542 11.1466567,6.66391495 12.6826746,8.57234016 C14.2186925,10.4807654 15.8571115,10.1794351 17.3931294,9.37588762 C18.9291472,8.57234016 19.6459556,6.56347152 20.2603627,4.85593317 C20.8747698,3.14839482 21.6939794,1.23996961 19.9531591,0.436422153 C18.2123389,-0.367125305 16.3578533,0.0200841265 15.1403032,0.938639314 C13.8090877,1.94307364 13.5018841,2.64617766 12.6826746,3.75105542" id="Fill-3" fill="#E9B843"></path>
                        <g id="Group-7" transform="translate(0.000000, 2.000000)">
                            <mask id="mask-6" fill="white">
                                <use xlink:href="#path-5"></use>
                            </mask>
                            <g id="Clip-6"></g>
                            <path d="M0.91311,9.16674227 C2.41311,10.0945773 4.11311,10.1976701 5.81311,9.47602062 C7.51311,8.75437113 7.3,8.41536486 8.49999866,6.45660197 C9.7,4.49783908 10.31311,2.67189691 9.51311,1.43478351 C8.71311,0.197670103 7.71311,-0.214701031 6.11311,0.197670103 C4.51311,0.610041237 0.91311,2.46571134 0.21311,5.04303093 C0.21311,5.04303093 -0.58689,8.23890722 0.91311,9.16674227 Z" id="Fill-5" fill="#E9B843" mask="url(#mask-6)"></path>
                        </g>
                        <g id="Group-10" transform="translate(19.000000, 17.000000)">
                            <mask id="mask-8" fill="white">
                                <use xlink:href="#path-7"></use>
                            </mask>
                            <g id="Clip-9"></g>
                            <path d="M1.10208911,7.38164842 C2.68624752,8.80270105 3.28030693,9.18164842 5.06248515,8.80270105 C6.84466337,8.42375368 9.04968701,5.55184513 9.44572661,4.50973987 C9.84176622,3.46763461 9.94077612,2.3307925 9.44572661,1.76237145 C8.95067711,1.1939504 8.11672002,0.430904674 6.35018285,1.05391126 C4.58364568,1.67691785 2.38921782,1.2484993 1.10208911,2.29060457 C0.405257426,2.85476246 0.435825624,2.95376246 0.237805822,3.90113088 C0.0397860198,4.8484993 -0.482069307,5.96059579 1.10208911,7.38164842 Z" id="Fill-8" fill="#E9B843" mask="url(#mask-8)"></path>
                        </g>
                        <path d="M14.4014999,13.3640765 C15.7584129,14.18286 16.8370847,16.1857304 16.3499677,17.6973308 C15.8628508,19.2089311 15.9602742,22.030585 16.2525443,22.6352251 C16.5448145,23.2398652 17.5190484,25.7591991 16.6422379,27.4723461 C15.7654274,29.1854931 15.5705806,29.7901333 11.7710684,29.99168 C7.97155624,30.1932267 4.17204407,26.6661593 4.17204407,26.6661593 C-3.13471012,19.9143446 0.859648836,15.1779969 3.39265695,14.7749035 C5.92566507,14.3718101 7.67928608,14.06949 9.33548369,12.7594364 C10.9916813,11.4493828 12.0633386,11.9532496 14.4014999,13.3640765" id="Fill-11" fill="#E9B843"></path>
                    </g>
                    <g id="Picto-patte-de-chat-Copy-7" transform="translate(226.500000, 36.000000) rotate(-300.000000) translate(-226.500000, -36.000000) translate(212.000000, 21.000000)">
                        <path d="M21.3161411,8.82025573 C22.0752917,8.12703904 19.2284769,10.7018439 19.0386893,11.8902153 C18.8489016,13.0785868 19.3233707,15.4553297 21.2212473,15.8514536 C23.1191238,16.2475774 24.3527435,15.8514536 25.6812571,14.6630821 C27.0097707,13.4747106 28.2433904,11.1969987 27.9587089,10.0086272 C27.6740274,8.82025573 27.2895177,7.36697646 25.3965756,7.03769853 C23.1191238,6.64157471 20.5569905,9.51347242 21.3161411,8.82025573" id="Fill-1" fill="#E9B843" transform="translate(23.500000, 11.500000) rotate(6.000000) translate(-23.500000, -11.500000) "></path>
                        <path d="M12.6826746,3.75105542 C12.6826746,3.75105542 11.1466567,6.66391495 12.6826746,8.57234016 C14.2186925,10.4807654 15.8571115,10.1794351 17.3931294,9.37588762 C18.9291472,8.57234016 19.6459556,6.56347152 20.2603627,4.85593317 C20.8747698,3.14839482 21.6939794,1.23996961 19.9531591,0.436422153 C18.2123389,-0.367125305 16.3578533,0.0200841265 15.1403032,0.938639314 C13.8090877,1.94307364 13.5018841,2.64617766 12.6826746,3.75105542" id="Fill-3" fill="#E9B843"></path>
                        <g id="Group-7" transform="translate(0.000000, 2.000000)">
                            <mask id="mask-10" fill="white">
                                <use xlink:href="#path-9"></use>
                            </mask>
                            <g id="Clip-6"></g>
                            <path d="M0.91311,9.16674227 C2.41311,10.0945773 4.11311,10.1976701 5.81311,9.47602062 C7.51311,8.75437113 7.3,8.41536486 8.49999866,6.45660197 C9.7,4.49783908 10.31311,2.67189691 9.51311,1.43478351 C8.71311,0.197670103 7.71311,-0.214701031 6.11311,0.197670103 C4.51311,0.610041237 0.91311,2.46571134 0.21311,5.04303093 C0.21311,5.04303093 -0.58689,8.23890722 0.91311,9.16674227 Z" id="Fill-5" fill="#E9B843" mask="url(#mask-10)"></path>
                        </g>
                        <g id="Group-10" transform="translate(19.000000, 17.000000)">
                            <mask id="mask-12" fill="white">
                                <use xlink:href="#path-11"></use>
                            </mask>
                            <g id="Clip-9"></g>
                            <path d="M1.10208911,7.38164842 C2.68624752,8.80270105 3.28030693,9.18164842 5.06248515,8.80270105 C6.84466337,8.42375368 9.04968701,5.55184513 9.44572661,4.50973987 C9.84176622,3.46763461 9.94077612,2.3307925 9.44572661,1.76237145 C8.95067711,1.1939504 8.11672002,0.430904674 6.35018285,1.05391126 C4.58364568,1.67691785 2.38921782,1.2484993 1.10208911,2.29060457 C0.405257426,2.85476246 0.435825624,2.95376246 0.237805822,3.90113088 C0.0397860198,4.8484993 -0.482069307,5.96059579 1.10208911,7.38164842 Z" id="Fill-8" fill="#E9B843" mask="url(#mask-12)"></path>
                        </g>
                        <path d="M14.4014999,13.3640765 C15.7584129,14.18286 16.8370847,16.1857304 16.3499677,17.6973308 C15.8628508,19.2089311 15.9602742,22.030585 16.2525443,22.6352251 C16.5448145,23.2398652 17.5190484,25.7591991 16.6422379,27.4723461 C15.7654274,29.1854931 15.5705806,29.7901333 11.7710684,29.99168 C7.97155624,30.1932267 4.17204407,26.6661593 4.17204407,26.6661593 C-3.13471012,19.9143446 0.859648836,15.1779969 3.39265695,14.7749035 C5.92566507,14.3718101 7.67928608,14.06949 9.33548369,12.7594364 C10.9916813,11.4493828 12.0633386,11.9532496 14.4014999,13.3640765" id="Fill-11" fill="#E9B843"></path>
                    </g>
                    <g id="Picto-patte-de-chat-Copy-8" transform="translate(346.500000, 77.000000) rotate(-345.000000) translate(-346.500000, -77.000000) translate(332.000000, 62.000000)">
                        <path d="M21.3161411,8.82025573 C22.0752917,8.12703904 19.2284769,10.7018439 19.0386893,11.8902153 C18.8489016,13.0785868 19.3233707,15.4553297 21.2212473,15.8514536 C23.1191238,16.2475774 24.3527435,15.8514536 25.6812571,14.6630821 C27.0097707,13.4747106 28.2433904,11.1969987 27.9587089,10.0086272 C27.6740274,8.82025573 27.2895177,7.36697646 25.3965756,7.03769853 C23.1191238,6.64157471 20.5569905,9.51347242 21.3161411,8.82025573" id="Fill-1" fill="#E9B843" transform="translate(23.500000, 11.500000) rotate(6.000000) translate(-23.500000, -11.500000) "></path>
                        <path d="M12.6826746,3.75105542 C12.6826746,3.75105542 11.1466567,6.66391495 12.6826746,8.57234016 C14.2186925,10.4807654 15.8571115,10.1794351 17.3931294,9.37588762 C18.9291472,8.57234016 19.6459556,6.56347152 20.2603627,4.85593317 C20.8747698,3.14839482 21.6939794,1.23996961 19.9531591,0.436422153 C18.2123389,-0.367125305 16.3578533,0.0200841265 15.1403032,0.938639314 C13.8090877,1.94307364 13.5018841,2.64617766 12.6826746,3.75105542" id="Fill-3" fill="#E9B843"></path>
                        <g id="Group-7" transform="translate(0.000000, 2.000000)">
                            <mask id="mask-14" fill="white">
                                <use xlink:href="#path-13"></use>
                            </mask>
                            <g id="Clip-6"></g>
                            <path d="M0.91311,9.16674227 C2.41311,10.0945773 4.11311,10.1976701 5.81311,9.47602062 C7.51311,8.75437113 7.3,8.41536486 8.49999866,6.45660197 C9.7,4.49783908 10.31311,2.67189691 9.51311,1.43478351 C8.71311,0.197670103 7.71311,-0.214701031 6.11311,0.197670103 C4.51311,0.610041237 0.91311,2.46571134 0.21311,5.04303093 C0.21311,5.04303093 -0.58689,8.23890722 0.91311,9.16674227 Z" id="Fill-5" fill="#E9B843" mask="url(#mask-14)"></path>
                        </g>
                        <g id="Group-10" transform="translate(19.000000, 17.000000)">
                            <mask id="mask-16" fill="white">
                                <use xlink:href="#path-15"></use>
                            </mask>
                            <g id="Clip-9"></g>
                            <path d="M1.10208911,7.38164842 C2.68624752,8.80270105 3.28030693,9.18164842 5.06248515,8.80270105 C6.84466337,8.42375368 9.04968701,5.55184513 9.44572661,4.50973987 C9.84176622,3.46763461 9.94077612,2.3307925 9.44572661,1.76237145 C8.95067711,1.1939504 8.11672002,0.430904674 6.35018285,1.05391126 C4.58364568,1.67691785 2.38921782,1.2484993 1.10208911,2.29060457 C0.405257426,2.85476246 0.435825624,2.95376246 0.237805822,3.90113088 C0.0397860198,4.8484993 -0.482069307,5.96059579 1.10208911,7.38164842 Z" id="Fill-8" fill="#E9B843" mask="url(#mask-16)"></path>
                        </g>
                        <path d="M14.4014999,13.3640765 C15.7584129,14.18286 16.8370847,16.1857304 16.3499677,17.6973308 C15.8628508,19.2089311 15.9602742,22.030585 16.2525443,22.6352251 C16.5448145,23.2398652 17.5190484,25.7591991 16.6422379,27.4723461 C15.7654274,29.1854931 15.5705806,29.7901333 11.7710684,29.99168 C7.97155624,30.1932267 4.17204407,26.6661593 4.17204407,26.6661593 C-3.13471012,19.9143446 0.859648836,15.1779969 3.39265695,14.7749035 C5.92566507,14.3718101 7.67928608,14.06949 9.33548369,12.7594364 C10.9916813,11.4493828 12.0633386,11.9532496 14.4014999,13.3640765" id="Fill-11" fill="#E9B843"></path>
                    </g>
                    <g id="Picto-patte-de-chat-Copy-12" transform="translate(490.500000, 19.000000) rotate(-345.000000) translate(-490.500000, -19.000000) translate(476.000000, 4.000000)">
                        <path d="M21.3161411,8.82025573 C22.0752917,8.12703904 19.2284769,10.7018439 19.0386893,11.8902153 C18.8489016,13.0785868 19.3233707,15.4553297 21.2212473,15.8514536 C23.1191238,16.2475774 24.3527435,15.8514536 25.6812571,14.6630821 C27.0097707,13.4747106 28.2433904,11.1969987 27.9587089,10.0086272 C27.6740274,8.82025573 27.2895177,7.36697646 25.3965756,7.03769853 C23.1191238,6.64157471 20.5569905,9.51347242 21.3161411,8.82025573" id="Fill-1" fill="#E9B843" transform="translate(23.500000, 11.500000) rotate(6.000000) translate(-23.500000, -11.500000) "></path>
                        <path d="M12.6826746,3.75105542 C12.6826746,3.75105542 11.1466567,6.66391495 12.6826746,8.57234016 C14.2186925,10.4807654 15.8571115,10.1794351 17.3931294,9.37588762 C18.9291472,8.57234016 19.6459556,6.56347152 20.2603627,4.85593317 C20.8747698,3.14839482 21.6939794,1.23996961 19.9531591,0.436422153 C18.2123389,-0.367125305 16.3578533,0.0200841265 15.1403032,0.938639314 C13.8090877,1.94307364 13.5018841,2.64617766 12.6826746,3.75105542" id="Fill-3" fill="#E9B843"></path>
                        <g id="Group-7" transform="translate(0.000000, 2.000000)">
                            <mask id="mask-18" fill="white">
                                <use xlink:href="#path-17"></use>
                            </mask>
                            <g id="Clip-6"></g>
                            <path d="M0.91311,9.16674227 C2.41311,10.0945773 4.11311,10.1976701 5.81311,9.47602062 C7.51311,8.75437113 7.3,8.41536486 8.49999866,6.45660197 C9.7,4.49783908 10.31311,2.67189691 9.51311,1.43478351 C8.71311,0.197670103 7.71311,-0.214701031 6.11311,0.197670103 C4.51311,0.610041237 0.91311,2.46571134 0.21311,5.04303093 C0.21311,5.04303093 -0.58689,8.23890722 0.91311,9.16674227 Z" id="Fill-5" fill="#E9B843" mask="url(#mask-18)"></path>
                        </g>
                        <g id="Group-10" transform="translate(19.000000, 17.000000)">
                            <mask id="mask-20" fill="white">
                                <use xlink:href="#path-19"></use>
                            </mask>
                            <g id="Clip-9"></g>
                            <path d="M1.10208911,7.38164842 C2.68624752,8.80270105 3.28030693,9.18164842 5.06248515,8.80270105 C6.84466337,8.42375368 9.04968701,5.55184513 9.44572661,4.50973987 C9.84176622,3.46763461 9.94077612,2.3307925 9.44572661,1.76237145 C8.95067711,1.1939504 8.11672002,0.430904674 6.35018285,1.05391126 C4.58364568,1.67691785 2.38921782,1.2484993 1.10208911,2.29060457 C0.405257426,2.85476246 0.435825624,2.95376246 0.237805822,3.90113088 C0.0397860198,4.8484993 -0.482069307,5.96059579 1.10208911,7.38164842 Z" id="Fill-8" fill="#E9B843" mask="url(#mask-20)"></path>
                        </g>
                        <path d="M14.4014999,13.3640765 C15.7584129,14.18286 16.8370847,16.1857304 16.3499677,17.6973308 C15.8628508,19.2089311 15.9602742,22.030585 16.2525443,22.6352251 C16.5448145,23.2398652 17.5190484,25.7591991 16.6422379,27.4723461 C15.7654274,29.1854931 15.5705806,29.7901333 11.7710684,29.99168 C7.97155624,30.1932267 4.17204407,26.6661593 4.17204407,26.6661593 C-3.13471012,19.9143446 0.859648836,15.1779969 3.39265695,14.7749035 C5.92566507,14.3718101 7.67928608,14.06949 9.33548369,12.7594364 C10.9916813,11.4493828 12.0633386,11.9532496 14.4014999,13.3640765" id="Fill-11" fill="#E9B843"></path>
                    </g>
                    <g id="Picto-patte-de-chat-Copy-10" transform="translate(559.500000, 209.000000) rotate(-270.000000) translate(-559.500000, -209.000000) translate(545.000000, 194.000000)">
                        <path d="M21.3161411,8.82025573 C22.0752917,8.12703904 19.2284769,10.7018439 19.0386893,11.8902153 C18.8489016,13.0785868 19.3233707,15.4553297 21.2212473,15.8514536 C23.1191238,16.2475774 24.3527435,15.8514536 25.6812571,14.6630821 C27.0097707,13.4747106 28.2433904,11.1969987 27.9587089,10.0086272 C27.6740274,8.82025573 27.2895177,7.36697646 25.3965756,7.03769853 C23.1191238,6.64157471 20.5569905,9.51347242 21.3161411,8.82025573" id="Fill-1" fill="#E9B843" transform="translate(23.500000, 11.500000) rotate(6.000000) translate(-23.500000, -11.500000) "></path>
                        <path d="M12.6826746,3.75105542 C12.6826746,3.75105542 11.1466567,6.66391495 12.6826746,8.57234016 C14.2186925,10.4807654 15.8571115,10.1794351 17.3931294,9.37588762 C18.9291472,8.57234016 19.6459556,6.56347152 20.2603627,4.85593317 C20.8747698,3.14839482 21.6939794,1.23996961 19.9531591,0.436422153 C18.2123389,-0.367125305 16.3578533,0.0200841265 15.1403032,0.938639314 C13.8090877,1.94307364 13.5018841,2.64617766 12.6826746,3.75105542" id="Fill-3" fill="#E9B843"></path>
                        <g id="Group-7" transform="translate(0.000000, 2.000000)">
                            <mask id="mask-22" fill="white">
                                <use xlink:href="#path-21"></use>
                            </mask>
                            <g id="Clip-6"></g>
                            <path d="M0.91311,9.16674227 C2.41311,10.0945773 4.11311,10.1976701 5.81311,9.47602062 C7.51311,8.75437113 7.3,8.41536486 8.49999866,6.45660197 C9.7,4.49783908 10.31311,2.67189691 9.51311,1.43478351 C8.71311,0.197670103 7.71311,-0.214701031 6.11311,0.197670103 C4.51311,0.610041237 0.91311,2.46571134 0.21311,5.04303093 C0.21311,5.04303093 -0.58689,8.23890722 0.91311,9.16674227 Z" id="Fill-5" fill="#E9B843" mask="url(#mask-22)"></path>
                        </g>
                        <g id="Group-10" transform="translate(19.000000, 17.000000)">
                            <mask id="mask-24" fill="white">
                                <use xlink:href="#path-23"></use>
                            </mask>
                            <g id="Clip-9"></g>
                            <path d="M1.10208911,7.38164842 C2.68624752,8.80270105 3.28030693,9.18164842 5.06248515,8.80270105 C6.84466337,8.42375368 9.04968701,5.55184513 9.44572661,4.50973987 C9.84176622,3.46763461 9.94077612,2.3307925 9.44572661,1.76237145 C8.95067711,1.1939504 8.11672002,0.430904674 6.35018285,1.05391126 C4.58364568,1.67691785 2.38921782,1.2484993 1.10208911,2.29060457 C0.405257426,2.85476246 0.435825624,2.95376246 0.237805822,3.90113088 C0.0397860198,4.8484993 -0.482069307,5.96059579 1.10208911,7.38164842 Z" id="Fill-8" fill="#E9B843" mask="url(#mask-24)"></path>
                        </g>
                        <path d="M14.4014999,13.3640765 C15.7584129,14.18286 16.8370847,16.1857304 16.3499677,17.6973308 C15.8628508,19.2089311 15.9602742,22.030585 16.2525443,22.6352251 C16.5448145,23.2398652 17.5190484,25.7591991 16.6422379,27.4723461 C15.7654274,29.1854931 15.5705806,29.7901333 11.7710684,29.99168 C7.97155624,30.1932267 4.17204407,26.6661593 4.17204407,26.6661593 C-3.13471012,19.9143446 0.859648836,15.1779969 3.39265695,14.7749035 C5.92566507,14.3718101 7.67928608,14.06949 9.33548369,12.7594364 C10.9916813,11.4493828 12.0633386,11.9532496 14.4014999,13.3640765" id="Fill-11" fill="#E9B843"></path>
                    </g>
                    <g id="Picto-patte-de-chat-Copy-4" transform="translate(20.500000, 179.000000) rotate(27.000000) translate(-20.500000, -179.000000) translate(6.000000, 164.000000)">
                        <path d="M21.3161411,8.82025573 C22.0752917,8.12703904 19.2284769,10.7018439 19.0386893,11.8902153 C18.8489016,13.0785868 19.3233707,15.4553297 21.2212473,15.8514536 C23.1191238,16.2475774 24.3527435,15.8514536 25.6812571,14.6630821 C27.0097707,13.4747106 28.2433904,11.1969987 27.9587089,10.0086272 C27.6740274,8.82025573 27.2895177,7.36697646 25.3965756,7.03769853 C23.1191238,6.64157471 20.5569905,9.51347242 21.3161411,8.82025573" id="Fill-1" fill="#E9B843" transform="translate(23.500000, 11.500000) rotate(6.000000) translate(-23.500000, -11.500000) "></path>
                        <path d="M12.6826746,3.75105542 C12.6826746,3.75105542 11.1466567,6.66391495 12.6826746,8.57234016 C14.2186925,10.4807654 15.8571115,10.1794351 17.3931294,9.37588762 C18.9291472,8.57234016 19.6459556,6.56347152 20.2603627,4.85593317 C20.8747698,3.14839482 21.6939794,1.23996961 19.9531591,0.436422153 C18.2123389,-0.367125305 16.3578533,0.0200841265 15.1403032,0.938639314 C13.8090877,1.94307364 13.5018841,2.64617766 12.6826746,3.75105542" id="Fill-3" fill="#E9B843"></path>
                        <g id="Group-7" transform="translate(0.000000, 2.000000)">
                            <mask id="mask-26" fill="white">
                                <use xlink:href="#path-25"></use>
                            </mask>
                            <g id="Clip-6"></g>
                            <path d="M0.91311,9.16674227 C2.41311,10.0945773 4.11311,10.1976701 5.81311,9.47602062 C7.51311,8.75437113 7.3,8.41536486 8.49999866,6.45660197 C9.7,4.49783908 10.31311,2.67189691 9.51311,1.43478351 C8.71311,0.197670103 7.71311,-0.214701031 6.11311,0.197670103 C4.51311,0.610041237 0.91311,2.46571134 0.21311,5.04303093 C0.21311,5.04303093 -0.58689,8.23890722 0.91311,9.16674227 Z" id="Fill-5" fill="#E9B843" mask="url(#mask-26)"></path>
                        </g>
                        <g id="Group-10" transform="translate(19.000000, 17.000000)">
                            <mask id="mask-28" fill="white">
                                <use xlink:href="#path-27"></use>
                            </mask>
                            <g id="Clip-9"></g>
                            <path d="M1.10208911,7.38164842 C2.68624752,8.80270105 3.28030693,9.18164842 5.06248515,8.80270105 C6.84466337,8.42375368 9.04968701,5.55184513 9.44572661,4.50973987 C9.84176622,3.46763461 9.94077612,2.3307925 9.44572661,1.76237145 C8.95067711,1.1939504 8.11672002,0.430904674 6.35018285,1.05391126 C4.58364568,1.67691785 2.38921782,1.2484993 1.10208911,2.29060457 C0.405257426,2.85476246 0.435825624,2.95376246 0.237805822,3.90113088 C0.0397860198,4.8484993 -0.482069307,5.96059579 1.10208911,7.38164842 Z" id="Fill-8" fill="#E9B843" mask="url(#mask-28)"></path>
                        </g>
                        <path d="M14.4014999,13.3640765 C15.7584129,14.18286 16.8370847,16.1857304 16.3499677,17.6973308 C15.8628508,19.2089311 15.9602742,22.030585 16.2525443,22.6352251 C16.5448145,23.2398652 17.5190484,25.7591991 16.6422379,27.4723461 C15.7654274,29.1854931 15.5705806,29.7901333 11.7710684,29.99168 C7.97155624,30.1932267 4.17204407,26.6661593 4.17204407,26.6661593 C-3.13471012,19.9143446 0.859648836,15.1779969 3.39265695,14.7749035 C5.92566507,14.3718101 7.67928608,14.06949 9.33548369,12.7594364 C10.9916813,11.4493828 12.0633386,11.9532496 14.4014999,13.3640765" id="Fill-11" fill="#E9B843"></path>
                    </g>
                    <g id="Picto-patte-de-chat-Copy-3" transform="translate(412.500000, 154.000000) rotate(210.000000) translate(-412.500000, -154.000000) translate(398.000000, 139.000000)">
                        <path d="M21.3161411,8.82025573 C22.0752917,8.12703904 19.2284769,10.7018439 19.0386893,11.8902153 C18.8489016,13.0785868 19.3233707,15.4553297 21.2212473,15.8514536 C23.1191238,16.2475774 24.3527435,15.8514536 25.6812571,14.6630821 C27.0097707,13.4747106 28.2433904,11.1969987 27.9587089,10.0086272 C27.6740274,8.82025573 27.2895177,7.36697646 25.3965756,7.03769853 C23.1191238,6.64157471 20.5569905,9.51347242 21.3161411,8.82025573" id="Fill-1" fill="#E9B843" transform="translate(23.500000, 11.500000) rotate(6.000000) translate(-23.500000, -11.500000) "></path>
                        <path d="M12.6826746,3.75105542 C12.6826746,3.75105542 11.1466567,6.66391495 12.6826746,8.57234016 C14.2186925,10.4807654 15.8571115,10.1794351 17.3931294,9.37588762 C18.9291472,8.57234016 19.6459556,6.56347152 20.2603627,4.85593317 C20.8747698,3.14839482 21.6939794,1.23996961 19.9531591,0.436422153 C18.2123389,-0.367125305 16.3578533,0.0200841265 15.1403032,0.938639314 C13.8090877,1.94307364 13.5018841,2.64617766 12.6826746,3.75105542" id="Fill-3" fill="#E9B843"></path>
                        <g id="Group-7" transform="translate(0.000000, 2.000000)">
                            <mask id="mask-30" fill="white">
                                <use xlink:href="#path-29"></use>
                            </mask>
                            <g id="Clip-6"></g>
                            <path d="M0.91311,9.16674227 C2.41311,10.0945773 4.11311,10.1976701 5.81311,9.47602062 C7.51311,8.75437113 7.3,8.41536486 8.49999866,6.45660197 C9.7,4.49783908 10.31311,2.67189691 9.51311,1.43478351 C8.71311,0.197670103 7.71311,-0.214701031 6.11311,0.197670103 C4.51311,0.610041237 0.91311,2.46571134 0.21311,5.04303093 C0.21311,5.04303093 -0.58689,8.23890722 0.91311,9.16674227 Z" id="Fill-5" fill="#E9B843" mask="url(#mask-30)"></path>
                        </g>
                        <g id="Group-10" transform="translate(19.000000, 17.000000)">
                            <mask id="mask-32" fill="white">
                                <use xlink:href="#path-31"></use>
                            </mask>
                            <g id="Clip-9"></g>
                            <path d="M1.10208911,7.38164842 C2.68624752,8.80270105 3.28030693,9.18164842 5.06248515,8.80270105 C6.84466337,8.42375368 9.04968701,5.55184513 9.44572661,4.50973987 C9.84176622,3.46763461 9.94077612,2.3307925 9.44572661,1.76237145 C8.95067711,1.1939504 8.11672002,0.430904674 6.35018285,1.05391126 C4.58364568,1.67691785 2.38921782,1.2484993 1.10208911,2.29060457 C0.405257426,2.85476246 0.435825624,2.95376246 0.237805822,3.90113088 C0.0397860198,4.8484993 -0.482069307,5.96059579 1.10208911,7.38164842 Z" id="Fill-8" fill="#E9B843" mask="url(#mask-32)"></path>
                        </g>
                        <path d="M14.4014999,13.3640765 C15.7584129,14.18286 16.8370847,16.1857304 16.3499677,17.6973308 C15.8628508,19.2089311 15.9602742,22.030585 16.2525443,22.6352251 C16.5448145,23.2398652 17.5190484,25.7591991 16.6422379,27.4723461 C15.7654274,29.1854931 15.5705806,29.7901333 11.7710684,29.99168 C7.97155624,30.1932267 4.17204407,26.6661593 4.17204407,26.6661593 C-3.13471012,19.9143446 0.859648836,15.1779969 3.39265695,14.7749035 C5.92566507,14.3718101 7.67928608,14.06949 9.33548369,12.7594364 C10.9916813,11.4493828 12.0633386,11.9532496 14.4014999,13.3640765" id="Fill-11" fill="#E9B843"></path>
                    </g>
                    <g id="Picto-patte-de-chat-Copy-9" transform="translate(486.000000, 95.000000)">
                        <path d="M21.3161411,8.82025573 C22.0752917,8.12703904 19.2284769,10.7018439 19.0386893,11.8902153 C18.8489016,13.0785868 19.3233707,15.4553297 21.2212473,15.8514536 C23.1191238,16.2475774 24.3527435,15.8514536 25.6812571,14.6630821 C27.0097707,13.4747106 28.2433904,11.1969987 27.9587089,10.0086272 C27.6740274,8.82025573 27.2895177,7.36697646 25.3965756,7.03769853 C23.1191238,6.64157471 20.5569905,9.51347242 21.3161411,8.82025573" id="Fill-1" fill="#E9B843" transform="translate(23.500000, 11.500000) rotate(6.000000) translate(-23.500000, -11.500000) "></path>
                        <path d="M12.6826746,3.75105542 C12.6826746,3.75105542 11.1466567,6.66391495 12.6826746,8.57234016 C14.2186925,10.4807654 15.8571115,10.1794351 17.3931294,9.37588762 C18.9291472,8.57234016 19.6459556,6.56347152 20.2603627,4.85593317 C20.8747698,3.14839482 21.6939794,1.23996961 19.9531591,0.436422153 C18.2123389,-0.367125305 16.3578533,0.0200841265 15.1403032,0.938639314 C13.8090877,1.94307364 13.5018841,2.64617766 12.6826746,3.75105542" id="Fill-3" fill="#E9B843"></path>
                        <g id="Group-7" transform="translate(0.000000, 2.000000)">
                            <mask id="mask-34" fill="white">
                                <use xlink:href="#path-33"></use>
                            </mask>
                            <g id="Clip-6"></g>
                            <path d="M0.91311,9.16674227 C2.41311,10.0945773 4.11311,10.1976701 5.81311,9.47602062 C7.51311,8.75437113 7.3,8.41536486 8.49999866,6.45660197 C9.7,4.49783908 10.31311,2.67189691 9.51311,1.43478351 C8.71311,0.197670103 7.71311,-0.214701031 6.11311,0.197670103 C4.51311,0.610041237 0.91311,2.46571134 0.21311,5.04303093 C0.21311,5.04303093 -0.58689,8.23890722 0.91311,9.16674227 Z" id="Fill-5" fill="#E9B843" mask="url(#mask-34)"></path>
                        </g>
                        <g id="Group-10" transform="translate(19.000000, 17.000000)">
                            <mask id="mask-36" fill="white">
                                <use xlink:href="#path-35"></use>
                            </mask>
                            <g id="Clip-9"></g>
                            <path d="M1.10208911,7.38164842 C2.68624752,8.80270105 3.28030693,9.18164842 5.06248515,8.80270105 C6.84466337,8.42375368 9.04968701,5.55184513 9.44572661,4.50973987 C9.84176622,3.46763461 9.94077612,2.3307925 9.44572661,1.76237145 C8.95067711,1.1939504 8.11672002,0.430904674 6.35018285,1.05391126 C4.58364568,1.67691785 2.38921782,1.2484993 1.10208911,2.29060457 C0.405257426,2.85476246 0.435825624,2.95376246 0.237805822,3.90113088 C0.0397860198,4.8484993 -0.482069307,5.96059579 1.10208911,7.38164842 Z" id="Fill-8" fill="#E9B843" mask="url(#mask-36)"></path>
                        </g>
                        <path d="M14.4014999,13.3640765 C15.7584129,14.18286 16.8370847,16.1857304 16.3499677,17.6973308 C15.8628508,19.2089311 15.9602742,22.030585 16.2525443,22.6352251 C16.5448145,23.2398652 17.5190484,25.7591991 16.6422379,27.4723461 C15.7654274,29.1854931 15.5705806,29.7901333 11.7710684,29.99168 C7.97155624,30.1932267 4.17204407,26.6661593 4.17204407,26.6661593 C-3.13471012,19.9143446 0.859648836,15.1779969 3.39265695,14.7749035 C5.92566507,14.3718101 7.67928608,14.06949 9.33548369,12.7594364 C10.9916813,11.4493828 12.0633386,11.9532496 14.4014999,13.3640765" id="Fill-11" fill="#E9B843"></path>
                    </g>
                    <g id="Picto-patte-de-chat-Copy-13" transform="translate(568.000000, 62.000000)">
                        <path d="M21.3161411,8.82025573 C22.0752917,8.12703904 19.2284769,10.7018439 19.0386893,11.8902153 C18.8489016,13.0785868 19.3233707,15.4553297 21.2212473,15.8514536 C23.1191238,16.2475774 24.3527435,15.8514536 25.6812571,14.6630821 C27.0097707,13.4747106 28.2433904,11.1969987 27.9587089,10.0086272 C27.6740274,8.82025573 27.2895177,7.36697646 25.3965756,7.03769853 C23.1191238,6.64157471 20.5569905,9.51347242 21.3161411,8.82025573" id="Fill-1" fill="#E9B843" transform="translate(23.500000, 11.500000) rotate(6.000000) translate(-23.500000, -11.500000) "></path>
                        <path d="M12.6826746,3.75105542 C12.6826746,3.75105542 11.1466567,6.66391495 12.6826746,8.57234016 C14.2186925,10.4807654 15.8571115,10.1794351 17.3931294,9.37588762 C18.9291472,8.57234016 19.6459556,6.56347152 20.2603627,4.85593317 C20.8747698,3.14839482 21.6939794,1.23996961 19.9531591,0.436422153 C18.2123389,-0.367125305 16.3578533,0.0200841265 15.1403032,0.938639314 C13.8090877,1.94307364 13.5018841,2.64617766 12.6826746,3.75105542" id="Fill-3" fill="#E9B843"></path>
                        <g id="Group-7" transform="translate(0.000000, 2.000000)">
                            <mask id="mask-38" fill="white">
                                <use xlink:href="#path-37"></use>
                            </mask>
                            <g id="Clip-6"></g>
                            <path d="M0.91311,9.16674227 C2.41311,10.0945773 4.11311,10.1976701 5.81311,9.47602062 C7.51311,8.75437113 7.3,8.41536486 8.49999866,6.45660197 C9.7,4.49783908 10.31311,2.67189691 9.51311,1.43478351 C8.71311,0.197670103 7.71311,-0.214701031 6.11311,0.197670103 C4.51311,0.610041237 0.91311,2.46571134 0.21311,5.04303093 C0.21311,5.04303093 -0.58689,8.23890722 0.91311,9.16674227 Z" id="Fill-5" fill="#E9B843" mask="url(#mask-38)"></path>
                        </g>
                        <g id="Group-10" transform="translate(19.000000, 17.000000)">
                            <mask id="mask-40" fill="white">
                                <use xlink:href="#path-39"></use>
                            </mask>
                            <g id="Clip-9"></g>
                            <path d="M1.10208911,7.38164842 C2.68624752,8.80270105 3.28030693,9.18164842 5.06248515,8.80270105 C6.84466337,8.42375368 9.04968701,5.55184513 9.44572661,4.50973987 C9.84176622,3.46763461 9.94077612,2.3307925 9.44572661,1.76237145 C8.95067711,1.1939504 8.11672002,0.430904674 6.35018285,1.05391126 C4.58364568,1.67691785 2.38921782,1.2484993 1.10208911,2.29060457 C0.405257426,2.85476246 0.435825624,2.95376246 0.237805822,3.90113088 C0.0397860198,4.8484993 -0.482069307,5.96059579 1.10208911,7.38164842 Z" id="Fill-8" fill="#E9B843" mask="url(#mask-40)"></path>
                        </g>
                        <path d="M14.4014999,13.3640765 C15.7584129,14.18286 16.8370847,16.1857304 16.3499677,17.6973308 C15.8628508,19.2089311 15.9602742,22.030585 16.2525443,22.6352251 C16.5448145,23.2398652 17.5190484,25.7591991 16.6422379,27.4723461 C15.7654274,29.1854931 15.5705806,29.7901333 11.7710684,29.99168 C7.97155624,30.1932267 4.17204407,26.6661593 4.17204407,26.6661593 C-3.13471012,19.9143446 0.859648836,15.1779969 3.39265695,14.7749035 C5.92566507,14.3718101 7.67928608,14.06949 9.33548369,12.7594364 C10.9916813,11.4493828 12.0633386,11.9532496 14.4014999,13.3640765" id="Fill-11" fill="#E9B843"></path>
                    </g>
                </g>
                <g id="CAT-PRINCIPAL" transform="translate(23.000000, 78.000000)">
                    <ellipse id="Oval" fill="#E9B843" cx="254" cy="210" rx="116" ry="14"></ellipse>
                    <g id="Chat" transform="translate(153.000000, 0.000000)">
                        <g id="Corps-chat">
                            <mask id="mask-42" fill="white">
                                <use xlink:href="#path-41"></use>
                            </mask>
                            <g id="Clip-2"></g>
                            <path d="M15.2498863,112.413418 C15.2498863,112.413418 20.5960948,120.783234 21.5389716,141.315155 C22.4818483,161.845682 25.468782,182.692813 24.2120758,192.958076 C23.6399621,197.624866 23.8649194,199.438024 21.9666682,201.737945 C20.0559194,204.053208 20.9987962,209.555445 25.1563412,210.014313 C34.021327,210.990629 41.6643223,210.014313 42.9238057,201.170287 C44.1819005,192.326261 43.0807204,160.266839 45.2816919,160.107839 C47.4840521,159.950234 55.1881469,157.265366 55.3450616,172.585155 C55.5019763,187.90355 56.1310237,193.747497 55.3450616,197.536997 C54.5590995,201.327892 51.7290806,205.750603 54.4007962,208.750682 C57.0752891,211.752155 68.8674976,213.646208 73.4277441,207.170445 C77.9879905,200.696076 78.6170379,164.056339 80.9749242,163.898734 C83.3328104,163.741129 127.013417,160.807997 128.951938,166.324182 C131.477848,171.502839 132.065237,187.133655 132.065237,191.115629 C132.065237,195.097603 132.359626,197.163208 131.332043,199.521708 C130.303071,201.880208 128.3951,210.581971 137.791929,210.877655 C147.188758,211.171945 152.033673,212.350497 151.593479,201.587313 C151.151896,190.821339 151.151896,163.538892 152.91545,163.538892 C154.676227,163.538892 162.165085,160.294734 162.165085,179.761076 C162.165085,199.226024 163.778668,198.63605 162.165085,203.060155 C160.550114,207.484261 161.430502,211.121734 167.157194,211.516445 C172.882498,211.908366 181.39755,214.268261 182.719521,203.355839 C184.041493,192.443418 182.719521,139.207708 185.80227,139.207708 C188.886408,139.207708 197.034863,160.148287 219.572256,165.604497 C242.108261,171.060708 259.670209,164.993603 265.2261,162.206918 C270.781991,159.420234 291.135076,142.012524 292.577858,132.592471 C294.017863,123.180787 290.654611,117.997945 279.755289,118.642313 C268.858744,119.285287 259.242512,142.251024 246.849028,146.970813 C234.455545,151.693392 223.343763,149.117313 209.45473,134.094603 C195.565697,119.070497 192.788445,101.686497 175.479227,86.2328132 C158.171398,70.7805237 132.316578,69.7079711 123.554351,69.4931816 C114.7949,69.2783921 111.588564,65.4163658 109.879166,56.4007868 C108.169768,47.3866026 100.187948,1.99907632 94.2835118,0.900023684 C88.3776872,-0.197634211 84.8797393,19.7917342 77.6616635,18.6926816 C70.4449763,17.5950237 33.1589905,18.0483132 23.4247251,19.3509974 C20.1434028,19.7917342 15.1124123,2.43702368 10.3022133,2.21805 C5.49062559,1.99907632 -0.413810427,40.21905 0.0222180095,65.9198658 C0.461023697,91.6220763 15.2498863,112.413418 15.2498863,112.413418" id="Fill-1" fill="#181818" mask="url(#mask-42)"></path>
                        </g>
                        <g id="Yeux-blanc" transform="translate(12.000000, 39.000000)" fill="#F7F7F7">
                            <path d="M49.6331789,12.229 C49.6331789,12.229 48.0601088,27.7536 62.0985474,27.8768 C76.136986,27.9986 77.3469333,17.6078 77.3469333,12.229 C77.3469333,6.8502 72.816214,0.616 63.4637228,0.616 C54.1098456,0.616 50.1182667,6.3616 49.6331789,12.229" id="Fill-4"></path>
                            <path d="M0.358245614,12.229 C0.358245614,12.229 -1.21621053,27.7536 12.8222281,27.8768 C26.8606667,27.9986 28.070614,17.6078 28.070614,12.229 C28.070614,6.8502 23.5412807,0.616 14.1887895,0.616 C4.83491228,0.616 0.841947368,6.3616 0.358245614,12.229" id="Fill-6"></path>
                        </g>
                        <g id="Pupilles" transform="translate(18.000000, 45.000000)" fill="#181818">
                            <path d="M51.0578087,7.64612308 C51.0327652,10.3419692 51.0202435,16.7942769 56.357287,17.2041231 C62.373287,17.6652 62.9242435,13.5168923 62.9242435,7.94796923 C62.9242435,2.37904615 61.413287,0.6372 56.9778087,0.6372 C53.121113,0.6372 51.0925913,3.84535385 51.0578087,7.64612308" id="Fill-9"></path>
                            <path d="M0.966817391,7.64612308 C0.941773913,10.3419692 0.929252174,16.7942769 6.26490435,17.2041231 C12.2822957,17.6652 12.8332522,13.5168923 12.8332522,7.94796923 C12.8332522,2.37904615 11.3209043,0.6372 6.88681739,0.6372 C3.02873043,0.6372 1.0002087,3.84535385 0.966817391,7.64612308" id="Fill-11"></path>
                        </g>
                    </g>
                    <ellipse id="Oval-Copy-2" fill="#E9B843" cx="544" cy="189.5" rx="37" ry="7.5"></ellipse>
                    <g id="Gamelle" transform="translate(512.000000, 163.000000)">
                        <g id="Group-3">
                            <mask id="mask-44" fill="white">
                                <use xlink:href="#path-43"></use>
                            </mask>
                            <g id="Clip-2"></g>
                            <path d="M32.1153832,29.0001882 C59.2090586,29.0001882 61.1261895,22.9862504 61.1261895,22.9862504 C61.1261895,22.9862504 63.1708911,9.46586016 59.8482105,6.80283577 C56.5255298,4.13981138 46.684734,0.247518699 32.1153832,0.247518699 C17.5463571,0.247518699 8.85174974,2.19431545 1.69902723,7.62234797 C-1.60872147,10.1321366 0.932304712,23.4985106 0.932304712,23.4985106 C0.932304712,23.4985106 5.02170785,29.0001882 32.1153832,29.0001882 Z" id="Fill-1" fill="#181818" mask="url(#mask-44)"></path>
                        </g>
                        <path d="M44.2400329,13.4360464 C44.2400329,13.4360464 58.6765069,11.625666 54.1056083,8.45280012 C49.7579711,5.43494251 37.5372187,5 31.3514834,5 C25.0799548,5 14.3981831,5.51641589 9.75242229,8.51233836 C5.54092834,11.9381896 20.3825192,13.4360464 20.3825192,13.4360464 C20.3825192,13.4360464 31.4793454,14.704942 44.2400329,13.4360464" id="Fill-4" fill="#FFFFFF"></path>
                    </g>
                    <ellipse id="Oval-Copy" fill="#E9B843" cx="480" cy="232" rx="64" ry="12"></ellipse>
                    <g id="Canette" transform="translate(427.000000, 123.000000)">
                        <g id="Group-22" transform="translate(0.000000, 47.000000)">
                            <g id="Group-3">
                                <mask id="mask-46" fill="white">
                                    <use xlink:href="#path-45"></use>
                                </mask>
                                <g id="Clip-2"></g>
                                <path d="M0.000124705882,14.2238745 L0.000124705882,50.9034039 C0.000124705882,50.9034039 0.0980188235,64.0001882 26.5188306,64.0001882 C48.6584894,64.0001882 52.4258541,55.3162667 52.4258541,50.9121882 L52.4258541,13.3040314 C52.4258541,8.6803451 48.3510894,0.313286275 26.2133012,0.313286275 C4.07488941,0.313286275 0.000124705882,8.72991373 0.000124705882,14.2238745" id="Fill-1" fill="#181818" mask="url(#mask-46)"></path>
                            </g>
                            <path d="M3,10 C3,5.58164912 13.0738204,2 25.5,2 C37.9261796,2 48,5.58164912 48,10 C48,14.4183509 37.9261796,18 25.5,18 C13.0738204,18 3,14.4183509 3,10" id="Fill-4" fill="#FFFFFF"></path>
                            <path d="M11,10 C11,7.79066762 17.7158944,6 25.9996923,6 C34.2841056,6 41,7.79066762 41,10 C41,12.2093324 34.2841056,14 25.9996923,14 C17.7158944,14 11,12.2093324 11,10 Z" id="Stroke-6" stroke="#181818" stroke-width="2"></path>
                            <path d="M26.5003122,30 C32.2989921,30 37,34.7010079 37,40.4996878 C37,46.2989921 32.2989921,51 26.5003122,51 C20.7010079,51 16,46.2989921 16,40.4996878 C16,34.7010079 20.7010079,30 26.5003122,30 Z" id="Fill-8" fill="#FFFFFF"></path>
                        </g>
                        <g id="Group-22-Copy-2" transform="translate(49.000000, 47.000000)">
                            <g id="Group-3">
                                <mask id="mask-48" fill="white">
                                    <use xlink:href="#path-47"></use>
                                </mask>
                                <g id="Clip-2"></g>
                                <path d="M0.000127058824,14.2238745 L0.000127058824,50.9034039 C0.000127058824,50.9034039 0.0998682353,64.0001882 27.0191859,64.0001882 C49.5765741,64.0001882 53.4150212,55.3162667 53.4150212,50.9121882 L53.4150212,13.3040314 C53.4150212,8.6803451 49.2633741,0.313286275 26.7078918,0.313286275 C4.15177412,0.313286275 0.000127058824,8.72991373 0.000127058824,14.2238745" id="Fill-1" fill="#181818" mask="url(#mask-48)"></path>
                            </g>
                            <path d="M3,10 C3,5.58164912 13.297683,2 26,2 C38.702317,2 49,5.58164912 49,10 C49,14.4183509 38.702317,18 26,18 C13.297683,18 3,14.4183509 3,10" id="Fill-4" fill="#FFFFFF"></path>
                            <path d="M11,10 C11,7.79066762 17.9397576,6 26.4996821,6 C35.0602424,6 42,7.79066762 42,10 C42,12.2093324 35.0602424,14 26.4996821,14 C17.9397576,14 11,12.2093324 11,10 Z" id="Stroke-6" stroke="#181818" stroke-width="2"></path>
                            <path d="M27.5003122,30 C33.2989921,30 38,34.7010079 38,40.4996878 C38,46.2989921 33.2989921,51 27.5003122,51 C21.7010079,51 17,46.2989921 17,40.4996878 C17,34.7010079 21.7010079,30 27.5003122,30 Z" id="Fill-8" fill="#FFFFFF"></path>
                        </g>
                        <g id="Group-22-Copy" transform="translate(28.000000, 0.000000)">
                            <g id="Group-3">
                                <mask id="mask-50" fill="white">
                                    <use xlink:href="#path-49"></use>
                                </mask>
                                <g id="Clip-2"></g>
                                <path d="M0.000127058824,14.2238745 L0.000127058824,50.9034039 C0.000127058824,50.9034039 0.0998682353,64.0001882 27.0191859,64.0001882 C49.5765741,64.0001882 53.4150212,55.3162667 53.4150212,50.9121882 L53.4150212,13.3040314 C53.4150212,8.6803451 49.2633741,0.313286275 26.7078918,0.313286275 C4.15177412,0.313286275 0.000127058824,8.72991373 0.000127058824,14.2238745" id="Fill-1" fill="#181818" mask="url(#mask-50)"></path>
                            </g>
                            <path d="M3,10 C3,5.58164912 13.297683,2 26,2 C38.702317,2 49,5.58164912 49,10 C49,14.4183509 38.702317,18 26,18 C13.297683,18 3,14.4183509 3,10" id="Fill-4" fill="#FFFFFF"></path>
                            <path d="M11,10 C11,7.79066762 17.9397576,6 26.4996821,6 C35.0602424,6 42,7.79066762 42,10 C42,12.2093324 35.0602424,14 26.4996821,14 C17.9397576,14 11,12.2093324 11,10 Z" id="Stroke-6" stroke="#181818" stroke-width="2"></path>
                            <path d="M27.5003122,30 C33.2989921,30 38,34.7010079 38,40.4996878 C38,46.2989921 33.2989921,51 27.5003122,51 C21.7010079,51 17,46.2989921 17,40.4996878 C17,34.7010079 21.7010079,30 27.5003122,30 Z" id="Fill-8" fill="#FFFFFF"></path>
                        </g>
                    </g>
                    <ellipse id="Oval-Copy-4" fill="#E9B843" cx="71.5" cy="169" rx="49.5" ry="9"></ellipse>
                    <g id="Arbe--chat" transform="translate(23.000000, 73.000000)">
                        <polygon id="Fill-1" fill="#FFFFFF" points="34.0644737 69.2455263 61.4039474 69.2455263 61.4039474 65.2981579 34.0644737 65.2981579"></polygon>
                        <polygon id="Fill-2" fill="#FFFFFF" points="34.0644737 49.0652632 61.4039474 49.0652632 61.4039474 45.1178947 34.0644737 45.1178947"></polygon>
                        <polygon id="Fill-3" fill="#FFFFFF" points="34.0644737 28.885 61.4039474 28.885 61.4039474 24.9376316 34.0644737 24.9376316"></polygon>
                        <polygon id="Fill-4" fill="#181818" points="34.0651316 35.0273684 34.0651316 38.9747368 34.0651316 45.1181579 61.4046053 45.1181579 61.4046053 38.9747368 61.4046053 35.0273684 61.4046053 28.8852632 34.0651316 28.8852632"></polygon>
                        <polygon id="Fill-5" fill="#181818" points="34.0651316 55.2088158 34.0651316 59.1561842 34.0651316 65.2982895 61.4046053 65.2982895 61.4046053 59.1561842 61.4046053 55.2088158 61.4046053 49.0653947 34.0651316 49.0653947"></polygon>
                        <g id="Group-11" transform="translate(0.000000, 0.136316)">
                            <path d="M90.5457895,89.9048684 C87.6405263,87.8325 79.5181579,86.9969737 61.405,85.5456579 L61.405,79.1996053 L61.405,75.2522368 L61.405,69.1088158 L34.0655263,69.1088158 L34.0655263,75.2522368 L34.0655263,79.1996053 L34.0655263,85.6219737 C19.8497368,86.6667105 11.4036842,87.9153947 8.61421053,89.9048684 L8.61421053,94.6469737 C8.61421053,94.6469737 26.5207895,98.6838158 48.3918421,98.6838158 C68.9563158,98.6838158 90.5457895,94.6469737 90.5457895,94.6469737 L90.5457895,89.9048684 Z" id="Fill-6" fill="#181818"></path>
                            <g id="Group-10">
                                <mask id="mask-52" fill="white">
                                    <use xlink:href="#path-51"></use>
                                </mask>
                                <g id="Clip-9"></g>
                                <path d="M96.5510526,1.17907895 L2.68394737,1.17907895 C-0.00289473684,1.17907895 -1.01736842,4.86065789 1.25763158,6.36065789 L7.24315789,10.3040789 C7.67078947,10.5856579 8.16552632,10.7356579 8.66947368,10.7356579 L31.4339474,10.7356579 L34.0655263,14.7106579 L34.0655263,18.6580263 L34.0655263,24.8014474 L61.405,24.8014474 L61.405,18.6580263 L61.405,14.7106579 L65.3523684,10.7356579 L90.8155263,10.7356579 C91.3378947,10.7356579 91.8484211,10.5751316 92.2852632,10.2738158 L98.0221053,6.33039474 C100.244474,4.80013158 99.2102632,1.17907895 96.5510526,1.17907895" id="Fill-8" fill="#181818" mask="url(#mask-52)"></path>
                            </g>
                        </g>
                    </g>
                    <ellipse id="Oval-Copy-3" fill="#E9B843" cx="27.5" cy="213.5" rx="27.5" ry="7.5"></ellipse>
                    <g id="Balle-de-laine" transform="translate(0.000000, 160.105263)">
                        <path d="M1.18390805,22.5641988 L17.5929602,53.323323 C18.7978366,53.7376636 20.0399959,54.074032 21.3103448,54.3351482 L2.3615042,18.8179068 C1.91319925,20.0273825 1.52127343,21.2794709 1.18390805,22.5641988" id="Fill-1" fill="#FFFFFF"></path>
                        <path d="M37.6822431,21.1857229 L34.3333333,23.553539 L56.8275862,23.553539 C56.6290534,22.7490635 56.3646658,21.9587429 56.0305496,21.1857229 L37.6822431,21.1857229 Z" id="Fill-3" fill="#FFFFFF"></path>
                        <path d="M36.6006507,16.7988643 L46.1724138,8.55299514 C45.4287643,8.00358305 44.6604845,7.47948517 43.8694688,6.97882638 L18.9425287,27.7289771 L20.5160341,30.6569873 L36.2937177,17.0632571" id="Fill-5" fill="#FFFFFF"></path>
                        <path d="M15.3908046,20.9965109 L16.7436831,23.553539 L39.0689655,4.67245062 C38.1230656,4.2221446 37.157653,3.8054714 36.1755153,3.42710224 L15.3954505,21.0021163 L15.3908046,20.9965109 Z" id="Fill-7" fill="#FFFFFF"></path>
                        <path d="M12.2197189,17.6339988 L31.9655172,1.78735643 C30.6349797,1.49099132 29.2940878,1.24698405 27.9480187,1.07311652 C27.9024594,1.06718922 27.858971,1.06521345 27.8123763,1.05928615 L10.6551724,14.8274212 L12.2197189,17.6339988 Z" id="Fill-9" fill="#FFFFFF"></path>
                        <path d="M10.6551724,49.599516 L0.00806857061,29.4730792 C-0.212064521,37.8338873 4.09062019,45.0207148 10.6551724,49.599516" id="Fill-11" fill="#181818"></path>
                        <path d="M28.6969332,27.1162955 L24.862069,31.8408953 L56.465879,31.8408953 C56.5551065,31.0727686 56.6347396,30.2963677 56.7009407,29.5047972 C56.7690606,28.6994364 56.8064786,27.9009707 56.8275862,27.1052632 L29.0989368,27.1052632 L28.6969332,27.1162955 Z" id="Fill-13" fill="#FFFFFF"></path>
                        <path d="M4.73563218,13.1278255 L26.5902947,54.31887 C26.8185112,54.3242961 27.0476297,54.3351482 27.2776503,54.3351482 C28.0624264,54.3351482 28.834574,54.3071136 29.5977011,54.2618964 L6.39538862,10.5305505 C5.80635549,11.3571206 5.24979586,12.2225775 4.73563218,13.1278255" id="Fill-15" fill="#FFFFFF"></path>
                        <path d="M0,29.4730792 C0.0252856028,28.5425041 0.111076041,27.5963036 0.264595772,26.637082 C0.498487598,25.179586 0.807333176,23.7550768 1.18390805,22.369631" id="Fill-17" fill="#181818"></path>
                        <path d="M0.268833679,26.8299974 C0.112855094,27.8316745 0.0256905905,28.8206491 0,29.7941994 L10.6505848,49.595468 C12.8040068,51.0725788 15.1978193,52.2774947 17.7586207,53.1512402 L1.20287015,22.369631 C0.820263854,23.8177076 0.506471641,25.3057062 0.268833679,26.8299974" id="Fill-19" fill="#181818"></path>
                        <path d="M2.36781609,19.2606214 L21.6536663,54.8995106 C23.4639707,55.2670531 25.3307314,55.4781171 27.2298851,55.5190563 L4.80746966,14.0822747 C3.86992449,15.6989159 3.05547262,17.4320064 2.36781609,19.2606214" id="Fill-21" fill="#181818"></path>
                        <line x1="37.1013103" y1="17.2089758" x2="37.4848966" y2="16.8751137" id="Fill-23" fill="#181818"></line>
                        <path d="M57.4278276,28.786756 C57.423092,28.7938595 57.4171724,28.8009629 57.4112529,28.8080664 C57.421908,29.1111468 57.4278276,28.9394802 57.4278276,28.786756" id="Fill-25" fill="#181818"></path>
                        <path d="M102.110331,50.923076 C95.2433879,46.88154 88.0222443,47.7163225 80.3769687,48.6024347 C74.691601,49.2598147 68.8146019,49.9397076 62.6051994,48.6726753 C60.8005947,48.3043624 59.6907673,47.6884064 59.3084127,46.8437181 C58.3666034,44.7590132 60.9513568,40.3329549 63.0275151,36.7767994 C65.4524243,32.6235988 67.7429191,28.700031 66.8465201,25.625654 C66.4859624,24.3946425 65.6395147,23.4022689 64.3943647,22.7565957 C62.4426306,21.7417091 60.4264139,21.6228404 58.5655004,22.4107958 C57.4574895,22.879967 56.4902504,23.3050127 55.6465273,23.694938 L35.2364205,23.694938 L38.3769958,20.9834708 L55.5838611,20.9834708 C55.0307638,19.4201672 54.2860352,17.9153974 53.3787377,16.4808683 C52.2607364,14.712246 50.8975197,13.0525867 49.3372223,11.5235029 C48.2619067,10.4707944 47.0957706,9.4811224 45.8533452,8.56079044 L36.6768347,16.4808683 L36.3825761,16.7348151 L21.25641,29.7914619 L19.7478803,26.9791363 L43.6454971,7.04881651 C42.2886378,6.19062047 40.8645712,5.40896868 39.3887369,4.71466737 L17.5672784,22.9141868 L16.2449309,20.4494621 L16.2494719,20.4548653 L36.5605844,3.51427353 C34.8758628,2.8758045 33.1430063,2.35170156 31.3883529,1.94556681 L14.0679618,16.3908162 L12.695663,13.8324375 L27.7437234,1.2818832 C25.2089212,0.953193218 22.8248813,0.996418202 20.5970527,1.35932797 C16.1014344,2.09055062 12.2479176,4.13743372 9.09916841,7.12806232 C7.94211434,8.22759786 6.88133007,9.45320626 5.91954023,10.7886782 L29.2804074,54.3351482 C30.9406075,54.239693 32.5535808,54.0460811 34.1075208,53.7471083 C37.0328513,53.184283 39.7520192,52.2612495 42.2250634,51.011327 C44.5963885,49.8109332 46.7370293,48.3052629 48.6024838,46.5087245 C49.5996937,45.5478691 50.5215225,44.509569 51.3543471,43.3866199 C52.3797114,42.0052215 53.2733858,40.5022527 54.0281047,38.8840174 C54.4876568,37.8970469 54.8927166,36.8641499 55.2441922,35.79163 C55.7128263,34.3634045 56.0888235,32.8640378 56.3540196,31.2890275 L26.4377236,31.2890275 L30.0678218,28.2038442 L30.44836,28.1975406 L56.6964131,28.1975406 C56.7054952,27.9814156 56.709128,28.0750698 56.709128,28.1813312 C57.1750375,27.5545689 57.9052349,26.6045198 59.9959244,25.7220097 C60.8532706,25.3590999 61.7142496,25.4302411 62.7087349,25.9471398 C63.1755526,26.1893798 63.2981604,26.4271173 63.3562856,26.6279333 C63.8231033,28.2254567 61.6379604,31.9662189 59.8833069,34.9721563 C57.1341683,39.680978 54.2905762,44.5500924 55.9943701,48.3160692 C56.8807789,50.2783033 58.8588509,51.5849586 61.8722774,52.2009146 C68.6556659,53.5859152 75.1084674,52.8384831 80.7983762,52.1802026 C88.122147,51.3319123 94.4441669,50.6006897 100.256683,54.019966 C100.546401,54.1919655 100.866998,54.2730123 101.182145,54.2730123 C101.801541,54.2730123 102.405498,53.9578301 102.745167,53.3905022 C103.257395,52.5359082 102.973127,51.4300691 102.110331,50.923076" id="Fill-27" fill="#181818"></path>
                    </g>
                </g>
            </g>
        </g>
    </g>
</svg>