<?xml version="1.0" encoding="UTF-8"?>
<svg width="42px" height="38px" viewBox="0 0 42 38" version="1.1" xmlns="http://www.w3.org/2000/svg" xmlns:xlink="http://www.w3.org/1999/xlink">
    <!-- Generator: Sketch 60.1 (88133) - https://sketch.com -->
    <title>Group 13</title>
    <desc>Created with Sketch.</desc>
    <defs>
        <polygon id="path-1" points="8.85047823e-06 0.305767376 41.9917323 0.305767376 41.9917323 38.1818182 8.85047823e-06 38.1818182"></polygon>
    </defs>
    <g id="UI" stroke="none" stroke-width="1" fill="none" fill-rule="evenodd">
        <g id="04_TCHAT_1-SLIDER" transform="translate(-42.000000, -36.000000)">
            <g id="CTA-EXIT" transform="translate(42.000000, 34.000000)">
                <g id="Group-13" transform="translate(0.000000, 2.000000)">
                    <path d="M41.2479712,2.70922673 C40.2463008,1.76359109 38.621001,1.76359109 37.6193306,2.70922673 L29.33313,10.5411464 C27.3287545,8.64954973 24.0791897,8.64954973 22.0751591,10.5411464 L15,17.2149391 L28.4846076,25 L32.9624604,20.8116737 C34.9668358,18.9210532 34.9668358,15.855059 32.9624604,13.9644386 L41.2479712,6.13251887 C42.2506763,5.18753404 42.2506763,3.65421156 41.2479712,2.70922673" id="Fill-1" fill="#181818"></path>
                    <path d="M18.1277674,18.910044 C18.7012999,18.6069424 19.3639471,18.4560637 20.0788226,18.5115091 C21.0727933,18.5935011 21.9551259,19.0857892 22.5639125,19.8240532 C23.4292709,19.002453 24.5861288,18.500084 25.8572361,18.500084 C27.9783598,18.500084 29.778932,19.8993246 30.4415791,21.8439464 C31.2148851,21.3113344 32.1409589,20.999832 33.1427639,20.999832 C35.8256687,20.999832 38,23.2381464 38,26 L4.20728125,26 C4.07279326,25.6091939 4,25.1884808 4,24.749958 C4,22.6789879 5.63115651,20.999832 7.64292709,20.999832 C8.07022024,20.999832 8.48086561,21.0757754 8.86115325,21.214893 C8.76159296,18.2732619 11.0214482,16 13.7141458,16 C15.6387603,16 17.3446687,17.1603212 18.1277674,18.910044" id="Fill-3" fill="#FFFFFF"></path>
                    <g id="Group-7">
                        <mask id="mask-2" fill="white">
                            <use xlink:href="#path-1"></use>
                        </mask>
                        <g id="Clip-6"></g>
                        <path d="M4.62234803,24.5753262 C4.60316693,24.4444171 4.59291496,24.3115829 4.59291496,24.1774652 C4.59291496,22.6418503 5.88036378,21.3924385 7.46313543,21.3924385 C7.79318268,21.3924385 8.11628504,21.4463422 8.42318268,21.5519037 C8.96653701,21.7392834 9.53767087,21.3366096 9.51716693,20.7741497 C9.43118268,18.4225989 11.3522693,16.6184278 13.6143165,16.6184278 C15.9008362,16.6184278 17.7151039,18.4222781 17.7151039,20.5967166 C17.7151039,21.0362888 18.0821906,21.3924385 18.5352614,21.3924385 C18.9880016,21.3924385 19.3550882,21.0362888 19.3550882,20.5967166 C19.3550882,20.0750053 19.2816709,19.5651658 19.1374819,19.0732941 C19.4146157,19.013615 19.702663,18.9924385 19.9969937,19.0139358 C20.7612614,19.0732941 21.456411,19.4194973 21.954789,19.989016 C22.2563953,20.333615 22.7934661,20.3653797 23.1360803,20.0589626 C23.8950567,19.3793904 24.8825528,19.0052727 25.916348,19.0052727 C27.7051512,19.0052727 29.2290567,20.1234545 29.7866315,21.6661283 C29.9638913,22.1560749 30.5714031,22.3534011 31.0168677,22.0639893 C31.706726,21.6163957 32.4997654,21.3924385 33.2974346,21.3924385 C35.2780488,21.3924385 36.9348992,22.7615294 37.3158756,24.5753262 L4.62234803,24.5753262 Z M38.9790094,24.5753262 C38.5877811,21.9330802 36.2781118,19.8850588 33.4677496,19.8051658 C35.1659386,17.8017433 35.1821433,14.9496578 33.6248362,12.9382139 L41.0297339,5.73981818 C42.3115606,4.49714439 42.3132142,2.48281283 41.0303953,1.23917647 C39.7488992,-0.00510160428 37.6730409,-0.00574331551 36.3908835,1.23949733 L28.9849937,8.43757219 C26.7603165,6.81628877 23.5524425,6.95682353 21.4878283,8.9608877 L15.0525685,15.2037754 C14.5846157,15.0866631 14.1027732,15.026984 13.6143165,15.026984 C10.7189622,15.026984 8.31735591,17.1170374 7.92844252,19.8240963 C7.77466299,19.809016 7.61956063,19.8013155 7.46346614,19.8013155 C4.9762063,19.8013155 2.9526,21.7643102 2.9526,24.1774652 C2.9526,24.3109412 2.95921417,24.4434545 2.97145039,24.5753262 L0.820190551,24.5753262 C0.553308661,24.5753262 0.303292913,24.7011016 0.149513386,24.9128663 C-0.00393543307,25.1243102 -0.0419669291,25.3951123 0.0479858268,25.6389626 L4.47683622,37.6540428 C4.59357638,37.9707273 4.90245827,38.0011985 5.24904094,38.0011985 L11.1538441,38.0011985 L30.8372929,38.0011985 L36.7424268,38.0011985 C37.0886787,38.0011985 37.3975606,37.9707273 37.5143008,37.6540428 L41.9431512,25.6389626 C42.0331039,25.3951123 41.9950724,25.1243102 41.8412929,24.9128663 C41.6878441,24.7011016 41.4378283,24.5753262 41.1709465,24.5753262 L38.9790094,24.5753262 Z" id="Fill-5" fill="#181818" mask="url(#mask-2)"></path>
                    </g>
                </g>
            </g>
        </g>
    </g>
</svg>