<?xml version="1.0" encoding="UTF-8"?>
<svg width="328px" height="120px" viewBox="0 0 328 120" version="1.1" xmlns="http://www.w3.org/2000/svg" xmlns:xlink="http://www.w3.org/1999/xlink">
    <!-- Generator: Sketch 60.1 (88133) - https://sketch.com -->
    <title>LOGO</title>
    <desc>Created with Sketch.</desc>
    <g id="UI" stroke="none" stroke-width="1" fill="none" fill-rule="evenodd">
        <g id="02_connection" transform="translate(-102.000000, -86.000000)">
            <g id="LOGO" transform="translate(102.000000, 86.000000)">
                <g id="chaaaat-room" transform="translate(0.823636, 0.600000)">
                    <ellipse id="Oval" fill="#E9B843" cx="165.176364" cy="62.4" rx="110" ry="5"></ellipse>
                    <path d="M22.96,59.6 C26.4266667,59.6 29.4266667,59.2533333 31.96,58.56 C34.4933333,57.8666667 36.88,56.8 39.12,55.36 C39.76,54.9333333 40.08,54.5066667 40.08,54.08 C40.08,53.8133333 39.9466667,53.4666667 39.68,53.04 L39.68,53.04 L36.72,48 C36.3466667,47.36 35.9733333,47.04 35.6,47.04 C35.3333333,47.04 34.88,47.2266667 34.24,47.6 C32.8,48.5066667 31.32,49.2133333 29.8,49.72 C28.28,50.2266667 26.5066667,50.48 24.48,50.48 C20.8,50.48 17.9866667,49.5466667 16.04,47.68 C14.0933333,45.8133333 13.12,43.0133333 13.12,39.28 C13.12,35.76 14.0933333,32.9733333 16.04,30.92 C17.9866667,28.8666667 20.64,27.84 24,27.84 C26.0266667,27.84 27.76,28.08 29.2,28.56 C30.64,29.04 32.1333333,29.76 33.68,30.72 C34.32,31.0933333 34.7733333,31.28 35.04,31.28 C35.4133333,31.28 35.7866667,30.96 36.16,30.32 L36.16,30.32 L38.88,25.6 C39.2,25.12 39.36,24.6666667 39.36,24.24 C39.36,23.76 39.0933333,23.3333333 38.56,22.96 C36.5333333,21.5733333 34.2933333,20.5333333 31.84,19.84 C29.3866667,19.1466667 26.4266667,18.8 22.96,18.8 C18.2666667,18.8 14.1866667,19.6533333 10.72,21.36 C7.25333333,23.0666667 4.6,25.4666667 2.76,28.56 C0.92,31.6533333 5.68434189e-14,35.2266667 5.68434189e-14,39.28 C5.68434189e-14,45.84 2,50.8666667 6,54.36 C10,57.8533333 15.6533333,59.6 22.96,59.6 Z M50.6618182,58.4 L56.8218182,35.36 C59.2218182,26.48 66.9018182,20.16 73.8618182,20.16 C80.3418182,20.16 84.3418182,23.92 84.3418182,30 C84.3418182,31.52 84.1018182,33.52 83.7018182,35.04 L77.4618182,58.4 L81.3818182,58.4 L87.4618182,35.36 C87.9418182,33.44 88.3418182,31.36 88.3418182,29.6 C88.3418182,21.76 83.0618182,16.64 74.9818182,16.64 C68.1018182,16.64 63.5418182,20.4 59.5418182,25.2 L66.3418182,1.49213975e-13 L62.4218182,1.49213975e-13 L46.7418182,58.4 L50.6618182,58.4 Z M108.163636,58.96 C109.630303,58.96 111.043636,58.6933333 112.403636,58.16 C113.763636,57.6266667 115.063636,56.8733333 116.303636,55.9 C117.543636,54.9266667 118.71697,53.7466667 119.823636,52.36 C120.930303,50.9733333 121.963636,49.4266667 122.923636,47.72 L122.923636,47.72 L122.203636,55.92 C122.203636,56.6133333 122.370303,57.2 122.703636,57.68 C123.03697,58.16 123.670303,58.4 124.603636,58.4 L124.603636,58.4 L128.283636,58.4 L133.123636,19.2 C131.523636,18.5066667 129.903636,18.02 128.263636,17.74 C126.623636,17.46 124.93697,17.32 123.203636,17.32 C120.803636,17.32 118.510303,17.66 116.323636,18.34 C114.13697,19.02 112.090303,19.98 110.183636,21.22 C108.27697,22.46 106.550303,23.9266667 105.003636,25.62 C103.45697,27.3133333 102.130303,29.1733333 101.023636,31.2 C99.9169697,33.2266667 99.0636364,35.38 98.4636364,37.66 C97.8636364,39.94 97.5636364,42.28 97.5636364,44.68 C97.5636364,46.9733333 97.8169697,49.0066667 98.3236364,50.78 C98.830303,52.5533333 99.5436364,54.0466667 100.463636,55.26 C101.383636,56.4733333 102.49697,57.3933333 103.803636,58.02 C105.110303,58.6466667 106.563636,58.96 108.163636,58.96 Z M110.843636,53.04 C106.73697,53.04 104.683636,49.8266667 104.683636,43.4 C104.683636,41.56 104.89697,39.7666667 105.323636,38.02 C105.750303,36.2733333 106.343636,34.6266667 107.103636,33.08 C107.863636,31.5333333 108.77697,30.1133333 109.843636,28.82 C110.910303,27.5266667 112.09697,26.4133333 113.403636,25.48 C114.710303,24.5466667 116.110303,23.82 117.603636,23.3 C119.09697,22.78 120.643636,22.52 122.243636,22.52 C122.803636,22.52 123.370303,22.54 123.943636,22.58 C124.51697,22.62 125.09697,22.7066667 125.683636,22.84 L125.683636,22.84 L123.963636,36.76 C123.21697,39.1333333 122.35697,41.3133333 121.383636,43.3 C120.410303,45.2866667 119.363636,47 118.243636,48.44 C117.123636,49.88 115.93697,51.0066667 114.683636,51.82 C113.430303,52.6333333 112.150303,53.04 110.843636,53.04 Z M162.465455,62.16 C168.225455,62.16 173.025455,59.76 175.905455,55.28 L175.905455,61.04 L188.065455,61.04 L188.065455,17.76 L175.905455,17.76 L175.905455,23.52 C173.025455,19.04 168.225455,16.64 162.465455,16.64 C150.225455,16.64 141.425455,26.64 141.425455,39.36 C141.425455,52.24 150.225455,62.16 162.465455,62.16 Z M164.465455,51.6 C157.665455,51.6 153.025455,46.4 153.025455,39.36 C153.025455,35.92 154.065455,33.04 156.145455,30.72 C158.305455,28.4 161.025455,27.2 164.465455,27.2 C167.745455,27.2 170.465455,28.32 172.625455,30.64 C174.785455,32.88 175.825455,35.76 175.825455,39.36 C175.825455,42.96 174.785455,45.84 172.625455,48.16 C170.465455,50.48 167.745455,51.6 164.465455,51.6 Z M210.207273,59.04 C211.833939,59.04 213.327273,58.8866667 214.687273,58.58 C216.047273,58.2733333 217.313939,57.8266667 218.487273,57.24 C219.660606,56.6533333 220.787273,55.9333333 221.867273,55.08 C222.947273,54.2266667 224.033939,53.2666667 225.127273,52.2 L225.127273,52.2 L225.687273,57.28 C225.873939,58.0266667 226.367273,58.4 227.167273,58.4 L227.167273,58.4 L228.687273,58.4 L228.687273,32.48 C228.687273,30.2666667 228.420606,28.26 227.887273,26.46 C227.353939,24.66 226.560606,23.1266667 225.507273,21.86 C224.453939,20.5933333 223.127273,19.62 221.527273,18.94 C219.927273,18.26 218.060606,17.92 215.927273,17.92 C213.020606,17.92 210.420606,18.4533333 208.127273,19.52 C205.833939,20.5866667 203.647273,22.16 201.567273,24.24 L201.567273,24.24 L202.247273,25.4 C202.513939,25.88 202.913939,26.12 203.447273,26.12 C203.847273,26.12 204.340606,25.8533333 204.927273,25.32 C205.513939,24.7866667 206.273939,24.2 207.207273,23.56 C208.140606,22.92 209.280606,22.3333333 210.627273,21.8 C211.973939,21.2666667 213.607273,21 215.527273,21 C218.647273,21 221.000606,21.9933333 222.587273,23.98 C224.173939,25.9666667 224.967273,28.8 224.967273,32.48 L224.967273,32.48 L224.967273,36.64 C220.460606,36.7466667 216.600606,37.12 213.387273,37.76 C210.173939,38.4 207.547273,39.2533333 205.507273,40.32 C203.467273,41.3866667 201.967273,42.64 201.007273,44.08 C200.047273,45.52 199.567273,47.08 199.567273,48.76 C199.567273,50.5733333 199.867273,52.1266667 200.467273,53.42 C201.067273,54.7133333 201.860606,55.7733333 202.847273,56.6 C203.833939,57.4266667 204.967273,58.04 206.247273,58.44 C207.527273,58.84 208.847273,59.04 210.207273,59.04 Z M211.167273,56.28 C210.127273,56.28 209.127273,56.1333333 208.167273,55.84 C207.207273,55.5466667 206.367273,55.0866667 205.647273,54.46 C204.927273,53.8333333 204.347273,53.0333333 203.907273,52.06 C203.467273,51.0866667 203.247273,49.9333333 203.247273,48.6 C203.247273,47.1866667 203.667273,45.9266667 204.507273,44.82 C205.347273,43.7133333 206.653939,42.76 208.427273,41.96 C210.200606,41.16 212.453939,40.5266667 215.187273,40.06 C217.920606,39.5933333 221.180606,39.3066667 224.967273,39.2 L224.967273,39.2 L224.967273,49.56 C224.033939,50.52 223.087273,51.4133333 222.127273,52.24 C221.167273,53.0666667 220.133939,53.78 219.027273,54.38 C217.920606,54.98 216.720606,55.4466667 215.427273,55.78 C214.133939,56.1133333 212.713939,56.28 211.167273,56.28 Z M260.789091,61.68 C267.909091,61.68 273.829091,58.56 276.709091,52.88 L276.709091,60.56 L283.189091,60.56 L283.189091,18.56 L276.709091,18.56 L276.709091,26.24 C273.829091,20.56 267.909091,17.44 260.789091,17.44 C248.869091,17.44 240.069091,27.2 240.069091,39.6 C240.069091,52 248.869091,61.68 260.789091,61.68 Z M261.669091,55.92 C252.629091,55.92 246.389091,48.72 246.389091,39.6 C246.389091,30.4 252.629091,23.2 261.669091,23.2 C270.149091,23.2 276.789091,29.28 276.789091,39.6 C276.789091,49.92 270.149091,55.92 261.669091,55.92 Z M313.370909,59.44 C315.930909,59.44 318.344242,59.0266667 320.610909,58.2 C322.877576,57.3733333 324.677576,56.1866667 326.010909,54.64 C326.970909,53.68 327.050909,52.5866667 326.250909,51.36 L326.250909,51.36 L322.810909,45.84 C322.010909,44.56 320.810909,44.4266667 319.210909,45.44 C318.037576,46.1866667 316.970909,46.56 316.010909,46.56 C313.930909,46.56 312.890909,45.3333333 312.890909,42.88 L312.890909,42.88 L312.890909,30.24 L323.610909,30.24 C324.144242,30.24 324.597576,30.0533333 324.970909,29.68 C325.344242,29.3066667 325.530909,28.8533333 325.530909,28.32 L325.530909,28.32 L325.530909,20.64 C325.530909,20.1066667 325.344242,19.6666667 324.970909,19.32 C324.597576,18.9733333 324.144242,18.8 323.610909,18.8 L323.610909,18.8 L312.890909,18.8 L312.890909,9.04 C312.890909,8.50666667 312.717576,8.06666667 312.370909,7.72 C312.024242,7.37333333 311.584242,7.2 311.050909,7.2 L311.050909,7.2 L300.970909,7.2 C300.437576,7.2 299.984242,7.37333333 299.610909,7.72 C299.237576,8.06666667 299.050909,8.50666667 299.050909,9.04 L299.050909,9.04 L299.050909,18.8 L294.170909,18.8 C293.637576,18.8 293.197576,18.9733333 292.850909,19.32 C292.504242,19.6666667 292.330909,20.1066667 292.330909,20.64 L292.330909,20.64 L292.330909,28.32 C292.330909,28.8533333 292.504242,29.3066667 292.850909,29.68 C293.197576,30.0533333 293.637576,30.24 294.170909,30.24 L294.170909,30.24 L299.050909,30.24 L299.050909,46.32 C299.050909,50.6933333 300.437576,53.9733333 303.210909,56.16 C305.984242,58.3466667 309.370909,59.44 313.370909,59.44 Z" id="chaaaat" fill="#181818" fill-rule="nonzero"></path>
                    <path d="M77.3531818,117.64 L77.3531818,98.67 C77.3531818,92.51 81.6231818,88.1 87.7831818,88.1 C89.3931818,88.1 90.9331818,88.31 92.2631818,88.66 L92.2631818,79.91 C91.1431818,79.49 89.7431818,79.28 87.9931818,79.28 C83.2331818,79.28 79.2431818,82.08 77.3531818,86.28 L77.3531818,79.98 L67.8331818,79.98 L67.8331818,117.64 L77.3531818,117.64 Z M118.812273,118.62 C130.362273,118.62 138.832273,110.08 138.832273,98.81 C138.832273,87.54 130.362273,79 118.812273,79 C107.542273,78.86 98.5822727,87.68 98.7922727,98.81 C98.5822727,109.94 107.542273,118.76 118.812273,118.62 Z M118.812273,110.15 C115.592273,110.15 113.002273,109.1 110.972273,106.93 C108.942273,104.76 107.962273,102.1 107.962273,98.81 C107.962273,92.37 112.372273,87.4 118.812273,87.4 C125.322273,87.4 129.732273,92.37 129.732273,98.81 C129.732273,102.1 128.682273,104.76 126.652273,106.93 C124.622273,109.1 122.032273,110.15 118.812273,110.15 Z M166.501364,118.62 C178.051364,118.62 186.521364,110.08 186.521364,98.81 C186.521364,87.54 178.051364,79 166.501364,79 C155.231364,78.86 146.271364,87.68 146.481364,98.81 C146.271364,109.94 155.231364,118.76 166.501364,118.62 Z M166.501364,110.15 C163.281364,110.15 160.691364,109.1 158.661364,106.93 C156.631364,104.76 155.651364,102.1 155.651364,98.81 C155.651364,92.37 160.061364,87.4 166.501364,87.4 C173.011364,87.4 177.421364,92.37 177.421364,98.81 C177.421364,102.1 176.371364,104.76 174.341364,106.93 C172.311364,109.1 169.721364,110.15 166.501364,110.15 Z M205.580455,117.64 L205.580455,97.97 C205.580455,94.89 206.420455,92.37 208.030455,90.34 C209.640455,88.31 211.740455,87.33 214.190455,87.33 C219.020455,87.33 221.680455,90.69 221.680455,97.06 L221.680455,117.64 L231.270455,117.64 L231.270455,97.97 C231.270455,91.74 234.910455,87.33 239.880455,87.33 C244.710455,87.33 247.370455,90.69 247.370455,97.06 L247.370455,117.64 L256.890455,117.64 L256.890455,96.36 C256.890455,85.51 251.220455,79 241.910455,79 C235.960455,79 231.550455,81.87 229.100455,86.35 C226.650455,81.59 222.310455,79 216.430455,79 C211.600455,79 207.610455,81.52 205.580455,85.37 L205.580455,79.98 L196.060455,79.98 L196.060455,117.64 L205.580455,117.64 Z" id="room" fill="#FFFFFF" fill-rule="nonzero"></path>
                </g>
            </g>
        </g>
    </g>
</svg>